/* XPM */
static char *_0776605cc6c4ad2c628a885940de867J6i3ySFnCk5YwQf9[] = {
/* columns rows colors chars-per-pixel */
"64 64 251 2 ",
"   c #010103",
".  c #0C0203",
"X  c #02040B",
"o  c #080709",
"O  c #02090D",
"+  c #140203",
"@  c #1B0202",
"#  c #1A0A09",
"$  c #17100E",
"%  c #040C13",
"&  c #050A14",
"*  c #091317",
"=  c #05121B",
"-  c #09141D",
";  c #1A1518",
":  c #240202",
">  c #2B0202",
",  c #280B08",
"<  c #340301",
"1  c #3B0200",
"2  c #340C04",
"3  c #3C0B03",
"4  c #27150A",
"5  c #371509",
"6  c #2B0915",
"7  c #271915",
"8  c #311B15",
"9  c #28211F",
"0  c #392619",
"q  c #031721",
"w  c #0A1721",
"e  c #0B1923",
"r  c #151922",
"t  c #231820",
"y  c #1F2224",
"u  c #272424",
"i  c #353228",
"p  c #420201",
"a  c #490505",
"s  c #440B03",
"d  c #4B0B02",
"f  c #5D0201",
"g  c #540802",
"h  c #4B1407",
"j  c #571609",
"k  c #4B1715",
"l  c #630201",
"z  c #6B0200",
"x  c #670C03",
"c  c #780602",
"v  c #671705",
"b  c #791403",
"n  c #6D0D18",
"m  c #562A0A",
"M  c #452617",
"N  c #59291A",
"B  c #672407",
"V  c #772706",
"C  c #732E16",
"Z  c #4C2824",
"A  c #473324",
"S  c #583521",
"D  c #6D2E24",
"F  c #663723",
"G  c #7B6317",
"H  c #534529",
"J  c #5B4735",
"K  c #68482C",
"L  c #674A33",
"P  c #734E33",
"I  c #37414B",
"U  c #6D5546",
"Y  c #655E58",
"T  c #880401",
"R  c #990703",
"E  c #881704",
"W  c #951402",
"Q  c #8E1514",
"!  c #A70400",
"~  c #B60600",
"^  c #A91502",
"/  c #B91902",
"(  c #A20012",
")  c #892B05",
"_  c #932F09",
"`  c #893618",
"'  c #A82603",
"]  c #B62701",
"[  c #B63A01",
"{  c #AE3112",
"}  c #A31729",
"|  c #8F3A28",
" . c #A7382A",
".. c #C90201",
"X. c #D60200",
"o. c #C71A03",
"O. c #D51C02",
"+. c #CD0012",
"@. c #E50B01",
"#. c #C82701",
"$. c #D72702",
"%. c #C93605",
"&. c #D73802",
"*. c #D22F16",
"=. c #E22C01",
"-. c #E63602",
";. c #EC3909",
":. c #D5372A",
">. c #984602",
",. c #924C0C",
"<. c #AF4F0A",
"1. c #966711",
"2. c #B86B0F",
"3. c #8C4F33",
"4. c #B44B2E",
"5. c #88603F",
"6. c #B36C2C",
"7. c #C64604",
"8. c #D74802",
"9. c #C85704",
"0. c #D75802",
"q. c #CE5315",
"w. c #E64703",
"e. c #E75601",
"r. c #EE580F",
"t. c #CD6C0B",
"y. c #D57805",
"u. c #E86504",
"i. c #EA6F0B",
"p. c #F97603",
"a. c #C74528",
"s. c #C95625",
"d. c #CC5336",
"f. c #E4562A",
"g. c #D16B2C",
"h. c #D77D27",
"j. c #E7742D",
"k. c #905B4D",
"l. c #906B50",
"z. c #AF6F51",
"x. c #AC635A",
"c. c #DA6F4C",
"v. c #D36F51",
"b. c #B59201",
"n. c #BB8730",
"m. c #D38D0C",
"M. c #E98703",
"N. c #F99A05",
"B. c #EF9111",
"V. c #D8AF13",
"C. c #F1AB0C",
"Z. c #FAB707",
"A. c #FAB818",
"S. c #D28D2E",
"D. c #EA8F2A",
"F. c #D4B02B",
"G. c #F0B12F",
"H. c #FAD703",
"J. c #F7CC13",
"K. c #FEE409",
"L. c #FFF20B",
"P. c #F7CC2F",
"I. c #FDEC2D",
"U. c #BE914F",
"Y. c #B48A71",
"T. c #D28E4E",
"R. c #EA904F",
"E. c #E5B54A",
"W. c #CC8C6B",
"Q. c #CB9A76",
"!. c #D49874",
"~. c #E6946D",
"^. c #D2A27B",
"/. c #ECA870",
"(. c #F2CF54",
"). c #67E4FF",
"_. c #6DE5FE",
"`. c #75E5FE",
"'. c #78E5FE",
"]. c #B3A09A",
"[. c #B3A8B0",
"{. c #DAAC8A",
"}. c #D0A794",
"|. c #DBB596",
" X c #E8B190",
".X c #CFB4AF",
"XX c #EABBA6",
"oX c #E6C3A5",
"OX c #ECCDAE",
"+X c #ECD6A1",
"@X c #ECCEB2",
"#X c #E3CDBA",
"$X c #EDD1B5",
"%X c #EFD9B2",
"&X c #E5D2BC",
"*X c #EDD4BB",
"=X c #B4B8C7",
"-X c #D6BCC0",
";X c #BBC7DA",
":X c #BEC9DD",
">X c #BCCCE1",
",X c #BCD0E5",
"<X c #BAD6ED",
"1X c #AEDDFA",
"2X c #B6DDF5",
"3X c #83E4FE",
"4X c #8CE4FE",
"5X c #93E4FD",
"6X c #9BE4FD",
"7X c #A4E3FD",
"8X c #ACE3FD",
"9X c #B3E3FD",
"0X c #BBE4FB",
"qX c #B8E6FB",
"wX c #D1CBC9",
"eX c #D5CCCA",
"rX c #C9CBD6",
"tX c #C0CBDE",
"yX c #CAD1D9",
"uX c #D7D4D9",
"iX c #E4CBC3",
"pX c #E7D5C6",
"aX c #ECDDD5",
"sX c #ECE1DA",
"dX c #C3CEE0",
"fX c #C4D2E4",
"gX c #CCD4E4",
"hX c #CBDBEA",
"jX c #D2D9E6",
"kX c #D6DCE8",
"lX c #C0DEF3",
"zX c #E1DFE3",
"xX c #DDE1EC",
"cX c #C3E6FA",
"vX c #CCE7F9",
"bX c #CCE8F9",
"nX c #D7E6F4",
"mX c #D5E9F7",
"MX c #D9E9F7",
"NX c #DCEAF6",
"BX c #D3E8F8",
"VX c #E3E6ED",
"CX c #E9E7E9",
"ZX c #E4EBF4",
"AX c #E9ECF3",
"SX c #EBEDF3",
"DX c #ECEDF3",
"FX c #EFEDF2",
"GX c #ECEFF8",
"HX c #F1EEF2",
"JX c #F0F1F6",
/* pixels */
"FXvXcX7X'.'.'.`.'.'.'.`.'.'.'.'.'.'.'.'.'.'.'.'.'.`.'.'.'.'.'.'.'.'.'.7X9X9X0XqX6X`.'.'.`.'.6X5X`.4X8X9X9X9X9X9X9X9X9X9X9X9X9X9X",
"FXFXNXMXZXvX8X4X_.`.'.'.'.'.`.'.`.'.'.'.'.`.'.'.'.'.'.'.'.'.'.`.'.`.3X9X7X5X6X4X'.`.'.'.'.'.'._.3X7X9X9X9X9X9X9X9X9X9X9X9X9X9X9X",
"cXvXcXMXBXBXcX8X7X3X`.'.'.'.'.'.'.'.'.`.'.'.'.'.'.'.'.'.'.'.'.'.'.'.5X7XqX5X_.`.'.'.`.'.'.`.'.'.4X8X8X8X9X9X9X9X9X9X9X9X9X9X9X9X",
"8X8X9X9X8X9X9X8X7X4X`.'.'.'.'.'.'.'.'.'.'.'.'.`.'.'.`.'.`.'.'.'.'.`.'.`.`.3X'.'.'.'.'.'.'.5X'.'.`.`.'.'.3X3X3X8X9X0X0X9X8X9X9X8X",
"0X9X9X9X9X9X9X6X_.'.'.'.`.'.'.'.'.'.'.'.'.'.'.'.'.'.'.'.'.'.'.'.'.`.'.'.'.'.3X'.`.'.'.'.'.4X'.`.4X3X`.'.'._.4X8X8X7X6X5X`.6X0X9X",
"vX8X9X9X0X9X9X8X5X'.'.'.'.'.'.'.'.'.'.'.'.'.'.'.'.'.'.`.'.'.`.'.'.'.'.'.'.'.'.'.'.'.'.'.'.`.'.'.9X9X6X'.`.'.3X3X'.`.'.`.'.'.5X6X",
"ZXBXmXNXAXcX9XBX8X3X'._.`.'.'.'.'.'.'.'.'.'.'.'.`.'.'.'.`.'.'.'.'.'.'.'.`.'.'.'.'.'.'.`.'.'.'.`.3X8X6X6X6X5X'.'.'.'.'.'.'.'.`._.",
"FXFXFXFXFXMXcXNXBX8X8X7X4X`.`.'.'.'.'.'.'.`.`.'.'.'.'.'.'.'.'.'.'.'.'.'.'.'.'.'.'.'.'.'.'.'.'.'.`.6X9X6X3X'.'.'.'.'.'.'.'.'.'.'.",
"AXAXSXSXDXDXSXvXMXvXMXbX9X8X4X'.'.`.`._.'.3X3X'.'.'.'.'.'.'.'.'.'.'.'.'.'.'.'.'.'.'.'.'.'.'.'.'.'.6X6X5X`.'.'.'.'.'.'.'.'.`.'.'.",
"DXFXSXSXDXDXSXHXFXFXSXZXMXSXbX0X4X3X4X4X6X9X8X'.'.'.'.'.'.'.'.'.'.'.'.`.'.'.'.'.'.'.'.'.'.'.'.'.'.`.`.`.'.`.'.'.'.'.'.'.'.'.'.'.",
"AXFXFXAXDXDXAXSXAXAXAXFXFXSXAXFXNXNXZXcX8X9X4X).`.`.`.'.'.'.'.'.'.'.'.'.'.'.'.'.'.'.'.'.'.'.'.'.'.'.'.'.'.'.'.'.'.'.'.'.'.'.'.'.",
"9XvXZXAXHXDXSXSXFXFXFXFXSXSXAXAXFXSXZXMXbXcXcXqX8X4X`._._.`.`.`.`.'._._.`.`.'.'.'.`.'.'.'.'.`.`.'.'.'.`.'.'.'.'.'.'.'.'.'.`.'.'.",
"9X8X9X0XMXZXSXSXSXSXDXDXDXSXDXDXSXSXDXHXFXFXFXHXDXZXMXvXvXvXvXBXqX7X8X6X3X'.'._._.'.'.`.'.`.6X5X'.'.'.'.'.'.'.'.'.'.'.'.'.'.'.'.",
"9X8X9X9X9X9XcXZXSXFXHXSXFXSXSXSXSXSXDXSXAXDXFXZXAXAXNXZXDXFXZXMXqXqXMXZXNXNXBXqX8X7X7X5X3X5X8X8X'.3X5X_.`._.'.'.'.'.'.'.`.`.'.`.",
"8X8X8X9X8X9X9XqX0XvXMXSXSXFXHXFXFXSXAXAXAXZXFXZXNXSXMXMXvXZXFXAXAXAXZXHXHXFXHXHXDXAXAXMXBXMXcX4XqXBXBXcX7X6X8XqX8X'.'.'.3X3X`.3X",
"MXvXcX9X9X8X8X8X9X8X8XcXcXvXMXZXAXFXHXHXBX0X0XMXNXMXZXFXBXvXBXMXZXAXZXAXFXSXSXSXFXSXSXFXHXHXZXcXFXHXHXNXmXqXqXcX7X5XcXmXNXMXMX9X",
"vXnXZXAXZXBXcX2X1X1X1X1X8X8X9X9X0XcXvXZXHXNXcX8X8X8X9X0X9X0XcX9X9X0XvXBXMXDXDXGXFXFXFXGXGXFXFXFXFXFXSXMXMX8X0XbXjXVXCXkXxXJXDXZX",
"8X1X0XcXcXcXnXFXVXZXxXZXMXvX2X9X8X8X8X9XvXAXHXNXcXqX9X9X0XBXMXvX9XqXBXBXcXMXvXVXSXGXkXkXkXSXVXgXkXZXFXFXSXZXmX0XeXhX2X1X2XkXSXZX",
"9X8X8X8X8X8XlXAXAXHXHXGXFXDXDXNXBXvXMXNXMXZXFXDXFXAXSXMXcX8X9X0X9X9X1X9X9X8X8X2X2X<X>X>XdXfXtX:X;X>XjXxXVXSXFXMX XyX8XqX2X2XqX9X",
"ZXBXBXZXBXZXMXcXcXvXMXxXjXgXAXHXFXFXHXFXHXFXAXFXSXSXFXBX0X0X9X0X8X9X8X9X9X9X9X9X1XfXdX<X<X,XtXtXwX,X<X>X,XfXgX;Xt.|.8XqX9X9X9X9X",
"HXHXHXHXFXHXFXAXZXZXNXxXZXkXZXGXDXFXFXAXFXDXGXHXFXDXDXDXAXSXNXMXNXvXcX0X1X9X9X9X<X:X:X>X1X<XfXtX/.fX<XfX<X,X>XwX%. X9X8X9X9X9X9X",
"VXZXVXZXCXDXDXDXHXGXAXAXDXjXdXkXkXZXkXdXjXjXkXzXuXxXVXVXSXVXFXHXHXHXJXDXZXSXZXZXhX:XdXtX>X<X<X;Xw.-X9X2X2X>XfX.XO.B.pXqX9X9X9X9X",
"tXtXtX:XrXkXkXkXgXjXdX;XdXdX=XdX:XdX:X:X:X;X:XtX:X:X:XtXdXtXdXkXVXkXVXZXSXSXVXtXtXdX:X:X>X>X,X=Xu..X1X2X9X<X].n./ D.N.+X8X9X9X9X",
"tXtXtXtXdX:X:X>X>X=XdXdX;XtXtX:XtX:XtXtXtXtXtXtXtXtXtXtX:XtX:X:X:X:X:XtXjXjXtX:XdXtXdXjXkXVXxX.X&./.kXhXhX:XU 9.*. .9./.qX8X9X9X",
"tXtXtXtXtXtXtXtXtXtXtXtX:XtX:XdXtX:XdX:XtX:XdXtXtX:XtXtXtXtXtX:XtXtXdXdXgXkXgXtX;XdXdXdXdXgXrXv./ %.iXSXZX=X< ( ^ T / r.uXqXqX8X",
"tXtX:XdXtX:XtXtXdX:XdX:XdXtXtXtXtXtXtXtXtXtX:XtX:XdXdX:XtXtXtXdXtXtX:XdXtXtXtXtX:XdX;X:X:XdX.X%.{ ~ !.uXkX=X@ { @.*.o.=.uXvXBXMX",
"tX:X:XtXtXdXtXtXtXtX:XtXtXtX:XtX:XtXtX:X:X:XtXtXtX:X:XtXtXtX:XtXtXdX:X:XtXtXtXtX:X:X:XdX:XgX.XX.:.! x.hX[.[.I ~ j.q.%.$.gXvXZXZX",
":XdXdX:X:XtXtXtX:XtXtXtXtXtXtXtXdXtX:XdXdXtXtXtXtXdX:XtX:XtXtXtXtX:XtXtXtXtXtXtXdX;XdX;X:XdX[.[ f.! x.fXv.Y I #.,._ -.=.iXzXjXuX",
"tXdXdX:XdX>X>X:X:X:XtX;XtXtXtXtXtXtXdX:XdXtXtXtXtXtXtXtXtXtXtXtXtX:XtX:XtXtXtXtXdXtXtXdX>XdX;Xa.2...Y..X8.l 5 %.W c -.$..X.X].;X",
"DXkXgXgXVXxXgXjXkXgXgXjXdXtXdX>X;X;X;X:X;X;X:XtX:X:XtXtXeXtXtXtXtXtXtX:XtXtXtXtX;XdX;XdXdX>X-X<.T ! 3.d.7.`   / ^ R #.o.F g k.:X",
"aXJXGXFXFXFXFXFXJXZXAXHXAXVXVXVXkXkXkXjXkXkXgXdXdXdXtX:XtX:X:X;X>X>X>X>X>X>X>X>X;X>XtXtX:X>X.X/ Q E T / O.z   &.#.#.-.] n l  .-X",
"xXFXFXFXFXAXFXAXFXFXAXAXFXFXHXHXDXHXDXDXHXDXAXGXDXFXVXzXiXVXVXxXzXiX#XiX#XrXrXeXuXtXtX>XdX>X Xu.:.$.} o.#.: # &.$.O.w.] j N R }.",
"CXJXJXJXFXSXSXSXJXAXFXAXJXDXFXAXAXAXFXAXAXZXsXCXaX*X*X*XOX$X*X*X@XOX@XOX$X@X#X#XpXwX:X:X:XyX|.@.*.$.$.X.%.  5 7.$.#.0.^ c E ~ R.",
"XXCXsXsXpXsXaXaXsXsXFXAXsXsXCXsXpXsXCXsXsXsXsX$XOXOX@X@X$X@X@X@X@X$XpX$X$X$XeXrXyXeXuXfXeX&XXX$.=.w.$.w.7.+ 4 8.w.#.8.E < + ^ 7.",
"P.%X$X*X%X+XaX*X$X$X&X*XOXOXOXOXOX$XOXOXOXOX@X@XOX$X@X@XOX@XOX$X@X|.^.l.v.OX+XXXoX|.Y.[.*XoXY.e.;.8.w.u.8.3 # %.w.] c > 2 > _ y.",
"H.c.c.c.~./.E.(.^. XoX$X$X$X$X$X$X$X@X$X$X$X@X@X@X@X@X@X$X$X@XOX*X}.@ 1.( S.G.T.g.E 1.6.Y 0.<.-.=.8.&.w.O.f 4 #.=.b   R ^ ~ >.u.",
"M.X.....e.e.<.<.$.9.:.~. X XOX*XOXOX$XOX@X@X@X@X@XOX@XOX+X|.!.%X|.k.1 1.{ ! M.m.M.7.D.S.^ u.w.=.o.%.#.&.w.g > / #.g > d E l V 8.",
"J.B.+...j.G.O.q.r.i.0.q.0.j.c.|.*X$X$X$X@X@X@X@X$X$X*X XM.>.i.R.D.<.T ) >.R S.m.M.m.y.t.h.g.8.O.' 8.#.^ %.2   ) s 4 4 3 v p ) 8.",
"I.E.X...$.p.N.N.D.D.8.s.V.A.e.T.|.|.|.oXoXoX|.{.{.{.{.!.M.D.%.M.Z.h.c ) <._ 6.n.V.V.m.#.<.0.e.O.#.&.^ [ ] :   B 3 M M > M + G h.",
"J.G.H.Z.Z.N.A.B.A.B.@.B.J.M.f.p.R.Q.Q.^.Q.W.!.Q.Q.!.!.!.g.8.*.G.N.#.> 1.6.  2.P.G.F.6.! #.y.t.=.=.8.v _ [ f > f x 2 > : 4   H 6.",
"N.J.P.I.J.Z.N.M.M.B.=.j.J.C.;.i.~.Y.~.!.!.!.Q.Q.{.Q.Q.Q.f.8.X.G.G.y.g 1.s.z y.D.M.[ <.' %.0.%.&._ %.) z f 2 : s 1 4 4 4 h @ d B ",
"B.F.S.P.F.V.2.2.1.q.*.j.F.i.w.p.T.,.6.h.D.R.R.~.v.z.T.Q.d.#.f.F.G.y.l <.8.>.S.&.8.%.9.9.8.<.] -.g f l 3 @         7 8   , @ . , ",
"A.J.H.K.I.F.g T f > a E ) ~ w.e.t._ 4.6.i.p.y.S.x.[ D.T.f.e.6.n.c.9.| <.0.s.S.0.8.u.7.<.B X j v   2 > : , + . # #     o       , ",
"A.H.L.L.I.G.B.Z.C.m.t.t.9.h.w.7.r.w.w.q.4.!  .g.v.} %.%.d.4.P l. .P F 3.3.4.1.) x C ) ' z +   O 4   0 S 5 $ X 7       0 0 #   # ",
"C.J.H.K.K.N.J.K.I.I.K.C.6.T.V 5 V ) g T T 1 T ! V.i...#.Q k P L S N M L Z *   v ,   O 1 l v 5 . 4   0 A 0 4 X   7 0 0 4 ; $     ",
"m.C.t.M.y.x 7.J.I.V.A.A.G.z.f [ ) ' j     | c.l.(.m.n S z 4._ : 5 O   < p X i : @ M K A   8 ,   . X + @       . S F M i   . . # ",
"i.M.q.C.y.m   b.m.9.t.t.u.<.x 7.t.f.^ >   D F.U.<._ 5 M k E V ^ { F A A . ; Y X i U 7 l.H : 8 . + 7 4 :     . 7 2 x p U J + 7 0 ",
"o.m.D.t.8._ z X a ~ X k n L l.m >.n c S J J D S P P P P S M j | { n J P A : : p P U p , , 8 , . : , .             o     7       ",
"e.E.6.2.B.A.m.1.2.g.4.S.t.E.W.y.g.i H P 3.3.5.z.4.3.K K P L L L H K 8 s j j N P T T E v g x x d s s 3 < :             o   .     ",
"N.I.I.J.P.I.I.(.P.G.G.F.j.B.z.R.2.H k.P v C z.x.a.g.l.6.7. .3.C ` S * p x g C P P C C b x x v x 3 3 s s >         o     .     @ ",
"r.P.P.G.P.P.D.n.T.y.>.P n D J I K P k.` 2   F k g C P k.[ %.^ 4.%.W ` D j Q F K P ` E x x E b f 3 d s 3 < .                   , ",
"-.@.;.w.;.=.@.~ 1.o b V t.#.s.v.z.z.Y.z.z.z.k.3.=   p 3 T x v 4.*.;.w.^ ^ W E b C E E b g b b d d d 3 3 2 +           .     : @ ",
"-.e.e.&.o.%.] ) F   J g.p.e.r.c.R %.z.x.4.x.l.| 4.E $ d E g 1 1 D { ! ^ ^ R / R c c z T 8 j d s s 3 s < : o               # @ @ ",
"j ,.>.B 4 2     1 c C _ ' u.c.a.] j.&.:.4.x i 3.;.' X , 4 5 s s k , b T ^ ^ W W b E W ~ T : : < < < > < :             .       > ",
"c T R R T / W g 3 s c T 1 a T T <.d.d.z.| V 0 N c c n O       @ > p a > # R / #.#.^ / *.4.P Y.l.F K A . .           . . X O o X ",
"&.=.-.$.#.;.$.] b d s 3 s g 5 d > > T } R ! / ! / o.! O # o         @ @ @ l z l 3   X i H U l.k.A A 0                 O     % o ",
";.u.e.w.-.] ] / T c 3 2 :   : p d 4 x ..$...! ^ ~ R a q r e - % o X           X X o : > X & O                               o & ",
"w.w.&.=./ R b N C h 8 7 o X X     + > s a ,         X e e e e = u u q - & 8 t t r r r w - r ; $ . . . .   o               * % & ",
"=.-.8.#.T b M y i u * u u u ; % & O         . + # @ . e e e w e r r q - % q e e e q - - w - w % X                         = w % ",
"o.#.' T b k * t u u u u A A e e % X o . + +     . X - - w - = w = % O = & & w q e - - e w w 6 6 # X                   .     o X ",
"j p z m 5 = u Z A r & X ; ; q e - + + : @   X X , $ q e e e e w - * & - - w w w w w e e w w $ 6 + X o                     o & O ",
"R E f < 5 7 = = = & * w q q e e w # . , :   X & ; 7 w e e e e e & - w - % w & O = - - - - - & o                             X   ",
"x f j B N M 6 e - e e e e w w e e q = q = = w w e q e e e w e e e e q w & - e - w e w - - w % O               o               o ",
"s > 2 M : < 6 q * - e w e q w e e w e e e w e - e e e e e w e e e e e e e - - w e - % & - - o * O   O       o                 & "
};
