/* XPM */
static char *c0c4454895454dfaa5d5d341deac6806QmiRiP7xB6nX0h7D[] = {
/* columns rows colors chars-per-pixel */
"64 64 42 1 ",
"  c #514E4F",
". c #595657",
"X c #5A5758",
"o c #5D5A5B",
"O c #605E5F",
"+ c #625F60",
"@ c #656263",
"# c #686566",
"$ c #6A6768",
"% c #6D6A6B",
"& c #716E6E",
"* c #726F70",
"= c #757273",
"- c #797677",
"; c #7A7778",
": c #7D7A7B",
"> c #817D7E",
", c #827F80",
"< c #858283",
"1 c #898586",
"2 c #8A8788",
"3 c #8D8A8B",
"4 c #918D8E",
"5 c #938F90",
"6 c #969293",
"7 c #999596",
"8 c #9B9798",
"9 c #9E9A9B",
"0 c #A19D9E",
"q c #A39FA0",
"w c #A5A1A2",
"e c #A9A5A6",
"r c #ACA7A8",
"t c #AEA9AA",
"y c #B2ADAE",
"u c #B4AFB0",
"i c #B6B1B2",
"p c #BAB5B6",
"a c #BCB7B8",
"s c #BEB9BA",
"d c #C1BBBC",
"f c #C4BFC0",
/* pixels */
"pppipipppuiiaw-rappppppppapppppyuuiaapp24pppppisaaasdaaiaiiaaiid",
"pppsaiuppippsq-ypppppiipapppppiipiyyppa34paasssipaaspiiiaipaadap",
"passapippappar:usaappiasaapppppipuryyip13aia7<<><psaiiaipe;><>ed",
"ppappppaaapase,udsppippppaiiippppppuupi13iai=@O#0aisiypiii>o$X7d",
"appapppisasasw:usiuppaiypiyyppppppiuppp<3ppi:%$>dpdr;&2ipdr#&@0d",
"piipaaurpaaaaw:tsuipaaaiyeypppppipiaapa44aai=&X0day&#&@>ppi-@O4d",
"pppasspupaaast:rspppppapuruippppappppps46api-#3yyay;%&$<upuw;X6d",
"appassapaassdr>tpapipiippppppppippipaaa34pai:edpyipi3#0auyuid44p",
"paaaaassasaasw:tapuippaappipaaaapippppa44sspyspadpiidrpidpdidutd",
"aapaaaasssapse:uppppapaaapppappaapaiiip34saaaisy70ddidpdu70dpddi",
"saasasassappsw:tsppuiappaapppiapayyiaaa14aapisr&##2ddudr=OO>iiii",
"ssssasaaaapiaw:tsppyypapaappippaayrasaa14spass=o#@.0dii*O@# 1dii",
"psapppippapiar:tsapipappppppppaaappappa33appsy>35520pyu236510uid",
"aaaappsspappsw-udapaaapaaaiupppsaaipppa23saaasssdddddddddddiiddi",
"iuiiuiyuiiiipe:rppyyupiyiuyyyuyiiiyyyyu12iiuiiiiutdyyiiyiityetyy",
",,,:>,>-;,>,,,:>,<::,,,>,,><::-,<>>>,::::>-:,>>>>>>>1>>>>>>>>>>>",
"8,400000q9wq9qw9qw890q90qq3,99q90999q0080q0000q00005>4000000007w",
"t-rsssfffdssssasasafsdfdsf9<pfdaaspppdsaadasdaaadddi<7ddddpdddpd",
"u:0apyqwweiaspiaasr9twwisd8,ipipiipppsppappiiiyidipu>0dpppppdiui",
"i>0aa<O#O>ipassdpat*$&o5sa6<paiippatrssssaasyyyaiudu>0ddpppuuppu",
"i;0ap,#%%tsaa93wssdr%*#3ap9<paiippieysppdaaayypapiuu>0dippueyiip",
"t;wap>@#1sas3+#@6spa,%#6ss9,pppipippassaapasapiaiddp>0dppipyupid",
"y;wai<@$9aar@#=#%ypa9%+3ss9<psappppaspsaapssspyipidu>0dppdpdpppp",
"y-0ai->yaaipr>@:taapay-3sd9<asppsspppapspappasiididu>0duapiaaaia",
"y:wsi6psppppsp5ispaapdpwss7<aaiaiaipppsspsappsapaupi>0dipuadppap",
"t:esppiaaiiappappayisaaaps9<ipiapsppssspsssspssaiiai>7dipppdpadi",
"y>wspppa4&=8sapps6*:6adpps7:iaasrussssspapaaaaiipiau>0aippupppyy",
"i;qsppa3o%#Otsiaqo%$X6dpps8:isspyupapssppippapeypppp>7aipuappuey",
"y-0ppau===*&2ppa<%-&&>uppa9<passapppsssaasssdiyypppi>7aiaippupup",
"t;0apapyuiiiupppiuuuuyippa92sppaaassssasaadauadpapdu>0dpdpaipppp",
"y;qsipssapappiippapiipppia9,papappspaaaaaaaiiaadaapi>7appappppdp",
"<;<1,2222222<12<<<<<,22<<<>>121222<2223331222>2<241<>><2<2<2<22>",
"66666656568566>374466466657750666668868<<67666466466666606466466",
"saaaasssssssdr:idpdppipddpdpddddpssaaas54aaaddddddddpddaaddadpad",
"aaaiapapaappsr,upppiipppiypddiiiippapyi23uyiuyittiapuuupiyyyyipi",
"aapiipipapapsr>rdppuyippdiuppddipittapp32iaa<%=&>ipppdpipt*&;&0d",
"ppauripippapse:ruipiyiddppiidiidppryapp34aii*#$&tdpar0ypud6O&O0d",
"iiaptiapipapse:yuppppdppdippuddupspaipp33iii=&#<dia6&$&rddu&&#6d",
"ppapppapppaade:ydppdppppdpppidiuppppppp33iai-@o0pp0X$&#=upd1@@7d",
"ppaiaaaiaaaade>ydppippiiiippduudppappip24aiy%;7iipy2@O&0uppu7@0d",
"aaaaaasaipppd0:ypipdiippiiipirrpiipiaip13aai3uauiiud0>ydpdpudw0d",
"apaappaaappade:ypddddpppdpdidiuiypipiia43pppiaaaddiyipppddddyppd",
"apapppaapppypw-eddpdapdppiiiiuiiiappppp22apyiaa7>3rdtpppw12rdudp",
"aaapaapppyeyie:ydutudddpduddidduppppipp13apiia6@$@*uudp0O$#&tpip",
"ppaaaaippurypy<ydpyypdipdiiupdpppppreys42ppasi#@%%O5dpu&O%#O<did",
"papaapippiuppr>upppppaaaiiidiiiuiiiyyip34appsiwe0eetdiu0ee00epii",
"assssssapsssd0>pddaddddddpiddudispssaip43daaasdsdddddddddddddidd",
"77878766775671>440800767566632544446624<>44636424673507546452244",
"3>1<1<361233234322321>132<>-<1>1,>>>1>14412>11>><11<><2<>>>>1>11",
"i:wapassipsssssspddidiiddd6>uuiididddpppdpdpddppduiu>0dudiuidyid",
"i:wspafssssssaaadippdiddip0>yiupduiippipipppppppdidu>0diiiiidiid",
"u-wapr99w0iaapppudt0000tpd7>ypdpdpuuipppippppddpttdu>0didydiuiiu",
"r:wss>o%o<pppssappp>X#O4di6>pdppyiyeydpdddpdpppirtii>0didryduydi",
"i>wsa1#=*ispa8<7dudr$&#4up0>upppuditupppupdppdppiudt>0dduyuudddd",
"y,wsa3#@3spp1O#@3dip;#@4dd5>ppppiiddpdiuppudpupadidd>0diiddidiyu",
"i:0ss1O%wapy@#*@%tdi0%O4dp7>ppdpddiididdpipippppyiiu>6diduudddyd",
"i>waa>>upppit>+<ypuudu-<pd0>ydiiiiyidpdippdaippipidi>6dpiddididi",
"u,wai0asppspap7ippdpipy0pp6>iidiididdiidduyppaauippi>0dpdyuiidid",
"i>wauiissytpipsaidurpiidpd0>ididiidiippdprrpdapupdpi>0duyuiddidi",
"i>wauupp<&$7spiad3&$4ppdpd0>ipiddiuupdiidpuippppppdd>6dpdddiidid",
"y;wpsss3X%%o7ais7.&%O2dppd7>idditdiuddiiappapppppidy>5dpdpdpiytd",
"u;9sppp<-%==1ppi2-=-&1ppid0>iiittidiuidiapdaadipdppy=7iiuippdyti",
"t;0aiipspiiiiiiipuuupppdpd0<iddiuiiddiiidppdppdpppdy-0duddiididd",
"t:wapppsapaapipppudidppdpd01idiidddiiiddpppppapuidpy>0dpipddpdid"
};
