/* XPM */
static char *_a2e8c64f7f44b9d8c124d96dda1311beO9blJAlL4kGng8o[] = {
/* columns rows colors chars-per-pixel */
"64 64 80 1 ",
"  c #837D7A",
". c #867F7D",
"X c #87817E",
"o c #88817F",
"O c #888280",
"+ c #8A8382",
"@ c #8B8481",
"# c #8C8582",
"$ c #8C8583",
"% c #8C8584",
"& c #8D8684",
"* c #8E8784",
"= c #8F8786",
"- c #8F8886",
"; c #908886",
": c #908986",
"> c #908988",
", c #938C89",
"< c #938C8A",
"1 c #948C8A",
"2 c #948D8B",
"3 c #958D8B",
"4 c #978F8D",
"5 c #97908E",
"6 c #98908E",
"7 c #9A928F",
"8 c #9A9290",
"9 c #9B9492",
"0 c #9C9491",
"q c #9D9592",
"w c #9C9593",
"e c #9F9795",
"r c #9F9895",
"t c #A09895",
"y c #A19895",
"u c #A19997",
"i c #A29997",
"p c #A39A98",
"a c #A39B99",
"s c #A49B98",
"d c #A69D9B",
"f c #A79E9B",
"g c #A79F9D",
"h c #A89F9D",
"j c #A8A09D",
"k c #A9A19E",
"l c #AAA29F",
"z c #ABA29F",
"x c #ABA2A0",
"c c #ACA3A0",
"v c #AEA5A3",
"b c #AFA6A4",
"n c #B0A7A4",
"m c #B1A7A4",
"M c #B3AAA7",
"N c #B5A8A4",
"B c #B3ABA8",
"V c #B4ABA8",
"C c #B5ACA8",
"Z c #B6AEAB",
"A c #B7AFAC",
"S c #B9AEAA",
"D c #B8AFAC",
"F c #BAAFAC",
"G c #BBB2AF",
"H c #BDB3AF",
"J c #BCB3B0",
"K c #BDB3B0",
"L c #BEB5B2",
"P c #BFB5B3",
"I c #BFB6B3",
"U c #BFB6B4",
"Y c #C0B6B3",
"T c #C0B7B4",
"R c #C1B8B4",
"E c #C2B8B5",
"W c #C3B9B6",
"Q c #C3BAB7",
"! c #C4BBB8",
"~ c #C5BCB9",
/* pixels */
"D:$qYHKKDKKKKLZ8$1>MLHHHHKHKKKYYKHLTHHHKHGHLLKHGGKLLHKLYKLLLYYTZ",
"G4:4DKKHKDBKKKTLv&>2BRGLKGKKKKKYLKLKKKKKHHHLLAKLKHTKLLYKYTLSLLTv",
"L4&2DYKDKKZHHLLLKn8&<ZLPLSAHKKYYKLKKKTKLGMSHKKKGKLKLYHLTLYLLLLYf",
"Re>-VTKDKYLYKHLHKTKt@4SLKDAKKKKDZKHHTKLTGMGLLKGKKTKTTLKLTLHKYYLq",
"Lk&$vRKLKTTYLHHKTKLKg:6SRKKKKTTDKTYYKTLTYHYHKKSDKTLLHYTLPSMHLYH>",
"Th&:kTKKLYKSDHHLKLKTRv&6VTKLRRTTTTTYKKKTYHCHYLKKLLYKLKLLKHHLHLM:",
"G8<<kRKKYYHDAGGHKTLKLRZ>:nPLTTKTTTTTTTTDi>kLYKLYTYKHKLLKKLYKLRf2",
"p&ei6KLKLLLHHGHHRLKTPRRK4 cTTTTKKYY!Tn8#1ALLKHYLTTYHKKTKTLLTLRq&",
"$7ki$MHSDHDKYTKKT!TTTLKPKt.cLLRRTTYc8&@pJKHGLKKYTTTLKTTTYYKKYZ>6",
"2628@qHSHHDKHKKHKTTTKKHHYLc:25riff8>&4vPLHHHHGTYYYYKKKLRTKYLYf$:",
"HSn8@&MHHKHTKKGAHKYTLKYLLYRM>2864=22pKLKJLKKHHYTTYHKHGLTYYKKH22o",
"HLKK8@kYHDKTHVKTLYKHKLTTLKHLz2kvk84zKHKAKLKLYLYTTYLGGHPKYTLYM&&7",
"GGDKH>8YKYYLDVKKLTKZKLKYLKHHYi4vi:cTKKNGLLLRTTYTTTKZGHLKTYLLiXqL",
"HGHKLN$ZTYTKDKLKKLYHTHVHLLLLYD&q4&ZYKKHLPKLKKTYLHKKYHYTKYLYH8:ZL",
"KKYTHYzhTYTTYTYKLLKKHZVKKKLLLTg@2&HLKLKKLLLKLKKLDHKHGKKHLRTMXfYL",
"KTTLYYYhDTT!TLKKKKKDKSDKDKKHKTZ>&4DLKKLLKLKLKLLKKKDHHLGHKLLg&GLG",
"LKYTTYLGHLTTTTLHHKLLKDDHHHKKHKYp@8KLYKKGKLHYKYKHKKKKHGKKLLH2hLLY",
"KKHKLTKLKYTTYLYLYLYKKHKKLKKLJKKt@pYYKKKKKKLLKHDASDKTHHKGHYM$SYTY",
"LGGKLHLKYKTTYTYLLKLTLLTKKKLLLKLtOvYKLKLKLGKKKHHHHDKTLLHKDYq>KKHH",
"LTKLLYYYKKYTTLKLHHYLKKLKKHLLLHKq@STLLKHLKKKKTKKHYKKKZZHKLhoi!LLK",
"YYTLTTTTYYLLTTTKHGHKKLKKLKYYGGK6>JPTYLH!LLLLLLHLKKHKVDKTc.>VTLT!",
"YLLYTTTYTTKKYYTTLLGHKKHYTTKKHGH48LLTLHKGZHYGHLHGKLLKDHYn@8LTTLKL",
"YYYKYTKLLLTLYYTTTRLLLLLYTYKHGHH>qLLLLKHSDLKHHLYLTKKLYS8@gKKKHLDH",
"LLLTTLKTLKTTKYTTRTYYLLLLLLGGSLK:iYKHHLLYLLGKLLTLKKTZf=qZLJKHKLLK",
"LKLTLYKLKDLKKYYKTHGKLDYHKYLHKTV:8LHHLKKHDHHLKHGYLMg&<cRLKLLKLLLK",
"HLTTLYKYKKHGKKGKTZSLAHKLLYLZKTn=>GLHLYLKGHHTTLLGk6o6ZTLHTLLPLLLL",
"HHYLTTLKLKHGKDHHLAJKKLLLTLLLDKn$6GLKLTLKGGLYTLg>-:hYYYKYKHKNvTYH",
"HLLLTLKKYKGKKKKHKKSLKJLLLKKHHRh::nLHLKLKHYRHv1@@6MKLKLLLYKTkfTHH",
"SGKKLLLKHDDDDKYHHKHKKKGKKKKKTK81&pLKKLKKYHf2o$>cGLSLLHKLYKYgaKKK",
"SLLKLKKKDHHDDTHTKKKKKYKJKKKLYL4ar9KPKLTDk:o-iMLHSHZHLKGLKKYqpTHL",
"LKAHYHLYKKKLKLTRTKKKKTKPLLGHYD>af@SRTSp<1>:nYRKGGKVSKKHHHLK&kTLK",
"HKLGYLKLYKYHYYTYDHDLTKPKKKKTVq:2::>Mg&&qf64LLYKKYLAHKYKGYV6onLHH",
"KHKKLLGHYKKKKTTKZHKKTTKKHHHg2@:>81@&&<gap1iRRLLYTTTKKYKTV22$nRHH",
"DYYLLGHHKKZVKKKKHDSDKTTTLG6@$6VLKDc4&ekgk>kRTTYQTRTYYKTV&8i2nYKK",
"&eZLYHHLKHKKKKLKHDJKKNvnh:&eMHLLLTTLh1=th1MRLRQRKKKLLYS>6vi$MQTK",
"o.@iMYLLHKKTLTTKYKBe244&&tVLYHHHNJTLGZ8&14YRTQQRQTKHTM2@26q2cDT!",
"vq$&$6VYTYKTTTDct418nHHAKKKTHKLLZKTLZLYk$4SZMnvpat42:$&&&&142$4c",
"HYq2i82tVTKSh8eehnHKQYHHLKKYYYYYKLLHLHLS:2-<544etipkxNVVAKHDnaq>",
"GHN&ikg88ti&8VKTKKKKTTYTTTTLLLLKKLLHHLYM@<nZGHRTYLKYTTLTTLLKTTKD",
"SGTc&kkfga=4DTTHZLPLYTTTTTTTYLYLLLYKGHYf.fYGGLTHSTKKHDHDDKLKYTKT",
"LLTT86ncf>&MYHKKGKLHLLLTLTTTTLYLLLKKHHKr&ZKKLHKLKYKHSGHDKKYNDTYK",
"TRLYc#8e>1VRGHDSKHGKTTYLLYLTKLHLHLTTHYZ-6GYKKVZYKKHHHKKHLYKDDTKK",
"MGLYL8@@6DTDSDSVLKKKYTYLKYYYYYYYTYDKHLzo6LHHKDVHKHDKKKHGYTTYKGKK",
"ZHSTTk@6HTKDAKDHHKLLLLLYKYTTTRLLRLDKLRio8LKLTYHDHGLKKKHLYTTTLKKL",
"HLLLYh.MYHKLLKGGKLHKKHKLTTTLYTKKTRRTKH>2qLHLYLKKLYLKLKYYYYTTKKYL",
"HHHRG>>HYKTTTKHKKKKLYLLNnTTTYKDKTRKHRx1i5LLHLHKHLTTTYYYYKLTTTKKH",
"HHYYiopQTTLKKGKHLKHLHHKBVHKTYDKTTYKYZ2qiiLGGKYLLLYYTLKHLLLKKTLKL",
"LLRL2$zYDHHKKHLLLKGHLLKLKKHHYKKTRTVh$>$&rLHHLYLYLYLYLLLHLTKLRLKH",
"PLYn><MLKKKHHLKKKKLLKLLLLLGGYKYHSq$2MHn6qTKKYYTYHLTTDGHLTYKKYKKK",
"LLYi@pHHYLHGDHLKKHGYGLKHHHHGHLSq$6MLLLQk8TLTLYTTYTRYZHHKLTYVHKTL",
"TKM42VTTKDKKHGDKKLLMHYRYDLYHnq@>nYYYTYTatLTKYLYYTYYLYLLKKYLHLLLK",
"ht7$8TLKZZKLKYHYKKLgekcMDHV8.$hKYYKLTTTi8TRRTRTYYLLLLYTKYYHKLLLL",
"@8v9&ATKKLLYLTKKPLHPxq6&14&XaSKKLHLHLKTh6TRYLLHLRTLKKTHKKTGKLHYY",
"Dvp8&BRRTLKLLLKLLKHLKRKK8$6DLKDASMGHHHRh<GLGVGKLRTTTTTLKTKHHLTLY",
"P!L4:eTTTTYLYLKYLKKLLLTRp.nTKKKKHGGHLLTe&ZYGVLLYTTTTKLKYKLLHLYKL",
"PPRV::ATTTTLYLYLLHJLRKLG@4LYLYKHHGLLLLTf$nRKHYKHYLTKKLLLTTYLKLKH",
"KTTRi&eTLYKKKYKKTTKKTKLqoMYYKDHDSGYKKGLh.BLHKGYHLTTTYLTTTTYKKYKK",
"TLTTn&>DYYTYLTTTTYKLYTv@tYKYKDHDZHKYYHLx@kPKLLHLTRTTYYYYKKTKLYKH",
"KTKTRt$aQRRTLYYHHTKKTG4&nYYYTYKYYLHYYYLx@aLLLHGL!TLHLLYKKLLTTKHH",
"KKTLLB>4ZYLLTTDVLYTLYf&6LYYTTKYYSHADGLTD&iHHKLGKTTYLGLYLKKTTYLLL",
"KYTTTTq1tTYDKYKKKLRTH>=kYKTTDKKKDVHVSLYH<<LYHYYLYLYDSKKGKYYYTLLL",
"YKKTTRc&1VRGKLLKKTT!i$2ZYKYYKDKYLKKTTLLH9XfLKLKYYLYVZHDHLYKYKKHH",
"HLKZLTL4&qKHHDDYLKRn$2eYTKMSLKKYKHTLYKVLp@>GKKLTTTKKKDKYHGDKKKGH",
"LKHZLRTk=&cHHKKKGHH5<oxTLKVHKKTTDKTKHKZTc::fYLTLKLHHTKKDGHKTDNSG"
};
