/* XPM */
static char *_9c3e8bd89cc4e2597e0eda0eb3fd62fPlsWCMREJkaZTwGf[] = {
/* columns rows colors chars-per-pixel */
"30 30 217 2 ",
"   c None",
".  c #3B261B",
"X  c #372420",
"o  c #511D0C",
"O  c #4E1616",
"+  c #7C030A",
"@  c #7A100B",
"#  c #64091D",
"$  c #660719",
"%  c #740B15",
"&  c #691618",
"*  c #7B1214",
"=  c #711E1B",
"-  c #781517",
";  c #6A0E09",
":  c #4B2718",
">  c #59291C",
",  c #6D2117",
"<  c #74291C",
"1  c #762417",
"2  c #4A1C29",
"3  c #6A0A25",
"4  c #681126",
"5  c #741A30",
"6  c #7D1026",
"7  c #5F3B2D",
"8  c #412627",
"9  c #782B28",
"0  c #6D3C24",
"q  c #7D3F28",
"w  c #7F3D38",
"e  c #772539",
"r  c #7D432C",
"t  c #7E4432",
"y  c #7E5134",
"u  c #95090D",
"i  c #861B0C",
"p  c #81140F",
"a  c #95170D",
"s  c #890F17",
"d  c #8A1413",
"f  c #8B1E1C",
"g  c #871918",
"h  c #9C1C19",
"j  c #991A18",
"k  c #8F0B11",
"l  c #A5120E",
"z  c #B41C0D",
"x  c #A31915",
"c  c #A41B1A",
"v  c #AD1F17",
"b  c #90230D",
"n  c #812213",
"m  c #8E2511",
"M  c #8C241C",
"N  c #842C1B",
"B  c #8B2B1A",
"V  c #8E2C14",
"C  c #92221B",
"Z  c #99251D",
"A  c #962716",
"S  c #89351D",
"D  c #87361B",
"F  c #96321C",
"G  c #98371D",
"H  c #AA200E",
"J  c #AD2115",
"K  c #A2231C",
"L  c #AB231C",
"P  c #AA2D1C",
"I  c #A42A16",
"U  c #BB241E",
"Y  c #B72917",
"T  c #AD341E",
"R  c #BF321C",
"E  c #B63318",
"W  c #8D1E20",
"Q  c #831A24",
"!  c #9B1B23",
"~  c #880D2B",
"^  c #A01D22",
"/  c #842322",
"(  c #8C2725",
")  c #8F2C28",
"_  c #9C2123",
"`  c #982A26",
"'  c #863625",
"]  c #8B342B",
"[  c #8D3324",
"{  c #973528",
"}  c #982833",
"|  c #8A3530",
" . c #8E3C35",
".. c #913B33",
"X. c #983D38",
"o. c #8A2737",
"O. c #A82628",
"+. c #B42524",
"@. c #B72C25",
"#. c #A53524",
"$. c #AF3B26",
"%. c #A53828",
"&. c #BA3422",
"*. c #BD3C21",
"=. c #B33A2B",
"-. c #B8362A",
";. c #A03A33",
":. c #A73936",
">. c #B53C31",
",. c #B83932",
"<. c #C6281A",
"1. c #D02719",
"2. c #CA381D",
"3. c #DE3D17",
"4. c #D9351C",
"5. c #D43F1E",
"6. c #DA3B1B",
"7. c #EB381C",
"8. c #CD2C25",
"9. c #CC3B23",
"0. c #C83929",
"q. c #D23B23",
"w. c #DE3923",
"e. c #DA3625",
"r. c #C43B31",
"t. c #CB3D3C",
"y. c #EA3B24",
"u. c #A64019",
"i. c #B1431E",
"p. c #88442C",
"a. c #9A4224",
"s. c #9A432C",
"d. c #944C2E",
"f. c #9D5C2E",
"g. c #8A4A35",
"h. c #964637",
"j. c #885438",
"k. c #9E5A3A",
"l. c #AB4226",
"z. c #BC442C",
"x. c #BF492C",
"c. c #B64528",
"v. c #AD572F",
"b. c #BD5126",
"n. c #AC4433",
"m. c #A34C32",
"M. c #A44A3B",
"N. c #A94834",
"B. c #BE4C34",
"V. c #A55335",
"C. c #A65C3A",
"Z. c #A95538",
"A. c #B85739",
"S. c #9B653F",
"D. c #A8603B",
"F. c #BC6238",
"G. c #B66238",
"H. c #D6461E",
"J. c #E54118",
"K. c #C84427",
"L. c #D24625",
"P. c #D64927",
"I. c #C2502A",
"U. c #DA5B2B",
"Y. c #CE4537",
"T. c #CC4A38",
"R. c #D64C3B",
"E. c #DE4634",
"W. c #C4523A",
"Q. c #C9503D",
"!. c #C55735",
"~. c #D85837",
"^. c #ED4D2A",
"/. c #E84728",
"(. c #F24C24",
"). c #FA4626",
"_. c #E95A2B",
"`. c #E95229",
"'. c #FB562A",
"]. c #EB4F32",
"[. c #E7553A",
"{. c #FB5A3A",
"}. c #D06027",
"|. c #CC6431",
" X c #D9653A",
".X c #E6632B",
"XX c #F9642A",
"oX c #E56133",
"OX c #FB6332",
"+X c #F76337",
"@X c #913446",
"#X c #8D5541",
"$X c #8C544E",
"%X c #985647",
"&X c #B14942",
"*X c #A75545",
"=X c #B45747",
"-X c #B65A49",
";X c #BA5F51",
":X c #906553",
">X c #AE6942",
",X c #B86547",
"<X c #B36A52",
"1X c #CA5440",
"2X c #C66843",
"3X c #D76740",
"4X c #C87358",
"5X c #CD7A53",
"6X c #EF6440",
"7X c #CD6F62",
"8X c #C77F63",
"9X c #E98B34",
"0X c #C88745",
"qX c #E99A53",
"wX c #EAA043",
"eX c #E88972",
"rX c #DD9A81",
/* pixels */
"                              y                             ",
"                              k.,X        !.                ",
"      F.|.K.W.#X              m.1X      Z.z.V.              ",
"    B..XXX'.^.a.              a.[.%.    p.Q.[.l.            ",
"  t A.V U.{.'.~.0             f.~.L._.u.D W.8.].2X          ",
". 7 #Xo Z.].).`.v.            j.B.R `._.b.n.O.%.C.>X        ",
": .     Q.[.y.H.oX,X          > 9 C E.6XE x. X0X0X<Xj.      ",
":       +Xw.^.J./.P : 2         > Q @.r.&.P..X9XwXqXD.      ",
"        ~./.H.7.(.9.* 4 5       8 = M X.m P E }.qX0XG.      ",
"        I.J.(.^.(.{.:.4 #       X d.S 1 ; i m G C.8X,X4X    ",
"        I.4.7.(.(.`.A $ #       : d.S , < ,X=X7X=X*Xg.      ",
"    e m.U.1.1.5.4.K.i 3 3 3   <XV.` f ) ....M.eX7XB.        ",
"  ! Q I.OX/.@.[.q.K.` 4 3 6 + =.~.A M { ' < , s.1X X        ",
"Y @.} P (.4.v R 0.,.-X= 3 ~ k 8.P.G D S p.r 0 ' a.F.        ",
"p ^ Q @ q.y.2.9.u K 4Xd.& $ ! t.#.B { B < %X$X:X' 2X        ",
"Q W } * @.y.w.P.h P 3X,Xw $ O.=.[ ..M p O.:. .h.[ 3X        ",
":.B | f <.{.e.c O.&.].z.p.' 1X+.X...% p E 0.,.:.G K.z.      ",
"h.= 9 9 K [.&.* 6 W +.B.D.F.T._ X.] & ` -.0.#.{ { n.5X      ",
"          l.-.M - s s / d.c.A - X.%X] Z _ ` %.m A s.C.      ",
"          c.K.r.c ^ j ; - d + + =XeXv.I K ( M a A -X,X      ",
"              >.=.T J ` o.} O.! n =X#.H.P.T P &.*.Q.1X      ",
"                h.A.x.&X@X  t.-.b I P.XXXXL.v q.[.P.9.      ",
"                  :X        R.P H H.XX`.y.e.+.v 9.].9.x.    ",
"                            @.h <.OX_.R   {.].v u +.+.M     ",
"                            c s l 6.2.      ].<.x k ^ W     ",
"                            { ( K z         i.T z.d ~ `     ",
"                          i  .| h           i i c.C M F F   ",
"                        _ n. .{ Y.          %.C C V D s.a.S ",
"                      1 ;.<X*XM.                  Z.d.d.    ",
"                        %Xg.                                "
};
