/* XPM */
static char *_a445e967274454df81eb0212c9f2b4b1R0CHe0II7q62tjE[] = {
/* columns rows colors chars-per-pixel */
"64 64 241 2 ",
"   c #000000",
".  c #0C0000",
"X  c #00000C",
"o  c #000015",
"O  c #010619",
"+  c #160810",
"@  c #0B131C",
"#  c #16161B",
"$  c #27040A",
"%  c #360405",
"&  c #39150A",
"*  c #271A19",
"=  c #311D17",
"-  c #2B271F",
";  c #3A2518",
":  c #000325",
">  c #011925",
",  c #09112F",
"<  c #191F23",
"1  c #0E2830",
"2  c #1D2B33",
"3  c #292627",
"4  c #372A26",
"5  c #303233",
"6  c #461D08",
"7  c #511108",
"8  c #512A0B",
"9  c #482817",
"0  c #552E16",
"q  c #5A331B",
"w  c #6E3B11",
"e  c #452F24",
"r  c #4D382B",
"t  c #583A28",
"y  c #463833",
"u  c #633E2D",
"i  c #7D481A",
"p  c #534331",
"a  c #7B4B25",
"s  c #694C33",
"d  c #75573A",
"f  c #063445",
"g  c #2E3C43",
"h  c #3B4547",
"j  c #505150",
"k  c #675748",
"l  c #6E5E4E",
"z  c #75644B",
"x  c #786A57",
"c  c #525E61",
"v  c #7A746B",
"b  c #803F11",
"n  c #874D16",
"m  c #A85D11",
"M  c #AA660F",
"N  c #8F582E",
"B  c #975B25",
"V  c #855C35",
"C  c #9B662B",
"Z  c #8F623B",
"A  c #986937",
"S  c #A96828",
"D  c #B9732B",
"F  c #A96E30",
"G  c #B67635",
"H  c #DD7C18",
"J  c #C57928",
"K  c #CD7C2D",
"L  c #876C46",
"P  c #93704E",
"I  c #887259",
"U  c #96795A",
"Y  c #A77948",
"T  c #B67D49",
"R  c #857969",
"E  c #977E64",
"W  c #CC8633",
"Q  c #DC8935",
"!  c #E98E31",
"~  c #E89239",
"^  c #F29534",
"/  c #B88449",
"(  c #B58C56",
")  c #B48F57",
"_  c #968775",
"`  c #AA916C",
"'  c #A9916E",
"]  c #B79668",
"[  c #C98946",
"{  c #CC8E4C",
"}  c #DA954B",
"|  c #CA9758",
" . c #D39A55",
".. c #E89947",
"X. c #D8A35A",
"o. c #E9A85A",
"O. c #F3A954",
"+. c #F7AB55",
"@. c #C59A6C",
"#. c #CAA36B",
"$. c #D7AA67",
"%. c #D5AE72",
"&. c #E5AC65",
"*. c #E9B669",
"=. c #F6B967",
"-. c #E5B974",
";. c #EFC578",
":. c #F8C878",
">. c #2C67B7",
",. c #6C7A88",
"<. c #5F66B9",
"1. c #003FD4",
"2. c #0043D6",
"3. c #0046D8",
"4. c #014BDB",
"5. c #0150DF",
"6. c #0254E2",
"7. c #025AE6",
"8. c #025EEB",
"9. c #0362ED",
"0. c #0C64EC",
"q. c #0568EF",
"w. c #1268EC",
"e. c #1A6BEB",
"r. c #1972EF",
"t. c #056CF1",
"y. c #0672F3",
"u. c #0778F6",
"i. c #0A7AF6",
"p. c #0A7EF8",
"a. c #1174F2",
"s. c #216FEA",
"d. c #2A7BE7",
"f. c #2472EA",
"g. c #2A76E9",
"h. c #337DE6",
"j. c #83789A",
"k. c #0482FB",
"l. c #0C84FB",
"z. c #1385FA",
"x. c #188AFB",
"c. c #1D93FC",
"v. c #2C84EE",
"b. c #3682E5",
"n. c #3983E5",
"m. c #3A84E5",
"M. c #3A85E5",
"N. c #3C86E5",
"B. c #3D88E6",
"V. c #3384E9",
"C. c #348BEC",
"Z. c #3A8BE9",
"A. c #3C93EF",
"S. c #2588F5",
"D. c #2491FC",
"F. c #2B95FC",
"G. c #2D9AFC",
"H. c #3796F4",
"J. c #339DFC",
"K. c #2DA2FD",
"L. c #35A2FD",
"P. c #3AA4FD",
"I. c #72A7D6",
"U. c #448DEA",
"Y. c #4895EC",
"T. c #509AED",
"R. c #479DF2",
"E. c #4BA1F4",
"W. c #42A6FC",
"Q. c #45A9FC",
"!. c #4BABFC",
"~. c #55A8F4",
"^. c #51AEF8",
"/. c #53AEFB",
"(. c #55B1FC",
"). c #5CB3FB",
"_. c #6CABED",
"`. c #62B5FB",
"'. c #68B6F9",
"]. c #6AB7FA",
"[. c #6DB9F9",
"{. c #71B3F3",
"}. c #7EBDF7",
"|. c #73BAF9",
" X c #7ABCF8",
".X c #7BC0FA",
"XX c #8B8C8C",
"oX c #A89C8D",
"OX c #B3A899",
"+X c #8E98AE",
"@X c #A59DB0",
"#X c #8DA6BE",
"$X c #B9B3A9",
"%X c #AEAEB0",
"&X c #CFAF8A",
"*X c #C7B7AA",
"=X c #CFBDB0",
"-X c #D9C19C",
";X c #F0CA8E",
":X c #C6C2BC",
">X c #D4C8B7",
",X c #EFD3A8",
"<X c #98B3D1",
"1X c #AFB5CA",
"2X c #91B8E6",
"3X c #82BEF6",
"4X c #87BEF6",
"5X c #BDC4CA",
"6X c #B8C7DA",
"7X c #9FC3EB",
"8X c #85C1F6",
"9X c #8AC2F6",
"0X c #86C3F9",
"qX c #94C6F5",
"wX c #9CC9F5",
"eX c #96C8F8",
"rX c #A1C5E9",
"tX c #B7CDE8",
"yX c #A3CCF5",
"uX c #A9CFF4",
"iX c #A1CFFB",
"pX c #ADD1F4",
"aX c #A3D0FC",
"sX c #B4D4F4",
"dX c #BAD5F2",
"fX c #BADAF9",
"gX c #D3CEC9",
"hX c #DBDBDC",
"jX c #E4DACA",
"kX c #F0DEC4",
"lX c #E4DED6",
"zX c #E4DED7",
"xX c #EBE2D4",
"cX c #E7E2DA",
"vX c #ECE5DB",
"bX c #F7E8D3",
"nX c #C8D8EB",
"mX c #D7DCE2",
"MX c #C8DBF1",
"NX c #D9E0E8",
"BX c #EEEAE4",
/* pixels */
"2.2.2.2.2.2.2.2.2.2.2.2.2.2.2.2.2.2.2.2.2.2.2.2.2.2.2.2.2.2.2.2.2.2.2.2.2.2.2.2.2.2.2.2.2.2.2.2.2.2.2.2.2.2.2.2.2.2.2.2.2.2.2.2.",
"2.2.2.2.2.2.2.2.2.2.2.2.2.2.2.2.2.2.2.2.2.2.2.2.2.2.2.2.2.2.2.2.2.2.2.2.2.2.2.2.2.2.2.2.2.2.2.2.2.2.2.2.2.2.2.2.2.2.2.2.2.2.2.2.",
"2.2.2.2.2.2.2.2.2.2.2.2.2.2.2.2.2.2.2.2.2.2.2.2.2.2.2.2.2.2.2.2.2.2.2.2.2.2.2.2.2.2.2.2.2.2.2.2.2.2.2.2.2.2.2.2.2.2.2.2.2.2.2.2.",
"2.2.2.2.2.2.2.2.2.2.2.2.2.2.2.2.2.2.2.2.2.2.2.2.2.2.2.2.2.2.2.2.2.2.2.2.2.2.2.2.2.2.3.2.3.3.2.2.2.2.2.2.2.2.2.2.2.2.2.2.2.2.2.3.",
"2.2.3.2.2.2.2.2.2.2.2.2.2.2.2.2.2.2.2.2.2.2.2.2.2.2.2.2.2.2.2.2.2.2.2.2.2.2.2.2.2.2.3.2.2.2.2.2.2.2.2.2.2.2.2.2.2.2.2.2.2.2.3.4.",
"2.3.3.4.2.2.2.2.2.2.2.2.2.2.2.2.2.2.2.2.2.2.2.2.2.2.2.2.2.2.2.2.2.2.2.2.2.2.2.2.2.2.2.2.2.2.2.2.2.2.2.2.2.2.2.2.2.2.2.3.2.3.2.4.",
"4.6.3.3.2.2.2.2.2.2.2.2.2.3.2.2.2.2.2.2.2.2.2.2.2.2.2.2.2.2.2.2.2.2.2.2.2.2.2.2.2.2.2.2.2.2.2.2.2.2.2.3.3.2.2.2.2.4.4.2.2.2.4.5.",
"5.8.8.5.4.2.2.2.2.2.2.2.2.3.4.2.2.2.2.2.2.2.2.2.2.2.2.2.3.2.2.2.2.2.2.2.2.2.2.2.2.2.2.2.2.2.2.2.2.2.2.3.8.3.4.9.7.9.8.7.5.2.9.9.",
"9.9.9.9.q.4.3.2.3.2.3.4.4.6.7.4.2.3.3.2.2.2.2.2.2.2.2.2.1.4.2.2.2.2.2.2.2.2.2.2.2.2.2.2.2.2.2.2.2.2.3.5.4.5.9.9.q.9.9.9.8.9.8.0.",
"9.8.9.9.9.8.8.7.6.6.6.9.8.8.8.8.8.7.5.3.2.2.2.2.2.2.2.4.5.4.2.4.4.2.2.2.2.2.2.2.2.2.2.2.2.2.2.3.5.4.4.6.4.6.7.8.9.7.8.9.9.9.8.9.",
"9.9.8.9.9.9.9.9.8.9.9.9.9.9.9.9.9.6.6.2.2.3.3.5.4.8.8.9.7.5.5.5.4.2.2.2.4.2.3.2.2.2.2.2.2.3.3.3.3.2.5.7.6.8.8.7.7.8.9.9.9.7.9.9.",
"9.9.9.9.9.9.9.9.9.9.9.9.9.9.9.7.9.9.6.4.5.8.8.9.9.9.9.7.6.9.9.4.7.4.2.6.6.5.6.2.2.4.2.4.5.5.3.4.3.4.6.q.9.9.9.9.q.9.9.9.9.9.9.9.",
"9.9.9.9.9.9.9.9.9.9.9.9.9.9.9.9.9.9.7.9.9.9.9.9.9.9.0.8.9.9.9.9.9.0.e.e.e.0.9.8.6.8.8.9.8.6.7.9.9.9.9.8.9.9.9.9.9.9.9.8.8.9.9.9.",
"9.9.9.9.9.9.9.9.9.9.9.9.9.9.8.9.9.9.9.9.q.9.9.9.9.9.9.8.8.8.8.w.h.h.m.m.e.7.9.9.9.9.9.7.8.9.w.9.q.9.9.0.8.w.9.9.9.9.9.0.f.g.f.0.",
"9.9.9.9.9.9.9.9.9.9.9.9.9.9.9.9.9.8.9.8.8.8.9.9.9.8.f.g.g.g.g.h.U.U.h.h.f.g.f.9.9.9.9.9.9.9.8.9.9.8.g.h.h.f.8.9.9.9.0.d.d.w.9.9.",
"9.9.9.9.9.9.9.9.9.9.9.9.9.9.9.9.9.a.r.e.r.e.e.0.q.f.m.B.m.m.m.m.h.h.m.m.m.m.m.e.f.h.0.8.9.9.9.9.8.g.m.M.B.d.9.9.9.9.9.9.9.8.9.9.",
"9.9.9.9.9.9.9.9.9.9.9.9.9.q.9.y.d.M.n.M.N.N.N.b.b.m.m.b.n.m.b.m.b._.T.r.n.b.M.h.N.N.h.w.9.9.0.d.d.h.h.h.g.w.9.9.9.9.9.9.9.9.9.9.",
"9.9.9.9.9.9.9.9.9.9.9.9.9.t.t.u.S.S.V.M.n.M.n.N.m.B.U.Y.Y.U.b.b.R.8X3X_.T.n.M.b.s.w.h.g.8.9.9.e.e.9.9.9.8.9.9.9.9.9.9.9.9.9.9.9.",
"9.9.9.9.9.9.9.0.9.9.8.9.9.9.t.i.k.k.v.M.n.N.n.n.m.R.Y.~.m.M.m.b.4XqX{. X~.n.M.h.h.s.g.h.g.e.9.9.9.9.9.9.9.9.9.9.9.9.9.9.9.9.9.9.",
"9.9.9.9.9.9.8.9.9.9.q.y.l.u.u.l.z.l.v.n.n.M.M.M.m.m.n.n.m.n.B.{.4XU.d.B.n.M.n.N.N.N.N.b.0.9.9.9.9.9.9.9.9.9.9.9.9.9.9.9.9.9.9.9.",
"9.9.9.8.8.t.y.q.9.l.l.l.l.l.l.l.l.l.z.n.N.M.M.n.B.Z.M.m.M.b.Y.Y.V.b.m.b.n.n.n.n.M.M.h.e.9.9.9.9.9.9.9.9.9.9.9.9.9.9.9.9.9.9.9.9.",
"q.q.t.t.y.i.l.u.l.l.l.l.l.l.l.l.k.k.v.v.n.n.m.n.m.m.M.m.N.n.b.n.m.m.m.n.n.n.n.b.g.r.q.9.0.9.9.9.9.9.9.9.9.9.9.9.9.9.9.9.9.9.9.9.",
"l.i.l.l.l.l.l.l.l.l.l.l.l.l.l.l.S.v.H.v.B.B.m.M.n.b.M.b.n.M.M.B.m.m.m.m.S.S.a.9.9.9.9.0.9.9.9.9.9.9.9.9.9.9.9.9.9.9.9.9.9.9.9.9.",
"l.l.l.l.l.l.l.l.l.l.l.k.k.S.V.V.M.A.H.A.Z.C.H.Z.b.M.M.M.n.T.~.Y.U.m.m.V.l.p.t.q.9.9.9.9.7.9.9.9.9.9.9.9.9.9.9.9.9.9.9.9.9.9.9.9.",
"l.l.l.l.z.l.l.l.l.l.k.S.W.E.E./.(./.E.R.H.H.F.M.Z.C.n.M.C.~.`.T.B.m.b.V.v.x.z.l.i.i.i.q.q.q.q.7.9.9.9.9.9.9.9.9.9.9.9.9.9.9.9.9.",
"l.l.l.l.k.k.k.z.l.k.H.).).`.).`.).`.[.!.H.A.C.A.R.!.~.R.M.R.E.Y.n.n.b.m.v.v.V.k.i.z.z.l.u.y.y.q.q.9.9.9.9.9.9.9.9.9.9.9.9.9.9.9.",
"l.k.k.x.D.F.D.k.D.F.J.L.!.).).).'.}.0X[.)./.~.).!.H.!.R.V.C.M.V.T.~.n.n.m.m.b.v.x.l.l.q.q.9.q.u.q.9.9.9.9.9.9.9.9.9.9.9.9.9.9.9.",
"l.D.G.G.L.L.P.J.P.Q.P.Q.`.|.3XwXyXyXqX9X|.).).)./.R.P.E.'.'.R.C.E.).H.n.Z.v.v.b.l.l.l.k.u.y.9.9.9.9.9.9.9.9.9.9.9.9.9.9.9.9.9.9.",
"c.J.P.P.Q.!.).`.`.).).). X9X9XwXyXsXqX9X X).`.).`.[.).'. X[.(.!.R.H.Z.B.m.S.k.l.l.l.l.q.q.q.9.9.9.9.9.9.9.8.9.9.q.y.q.8.9.9.9.q.",
"D.J.L.P.}.qX8X8X3X|.).).). X X).|. X[.8X[.!.W./.Q.).(./.(.P.!.).(.Z.C.D.z.l.l.l.l.l.p.u.q.q.q.y.y.q.q.p.p.u.9.q.p.y.i.l.l.l.p.l.",
"F.P.L. X9X9X9XyXqX9X|.).).).).`.).).).`.(.L.L.P.P.!.P.L.L.D.F.F.D.D.k.k.l.l.l.l.l.l.l.l.l.l.l.l.l.l.l.l.l.l.l.l.l.l.l.l.l.l.l.l.",
"P.L.W.}.|.9XwXqX|.).`.`.'.[.`.|.).).).).W.L.L.L.D.D.x.D.x.k.k.k.k.k.l.l.l.l.l.l.l.l.l.l.l.l.l.l.l.l.l.l.l.l.l.l.l.l.l.l.l.l.l.l.",
"P.L.P.(.'.qXqX X[.|.|.}.4X9X[.(.(./.W.P.P.L.L.F.p.l.l.k.l.l.l.z.l.l.l.l.l.l.l.l.l.l.l.l.l.l.l.l.l.l.l.l.l.l.l.l.l.l.l.l.l.l.l.l.",
"L.!.Q.!.|.8X0X9X9X9X8X|.'.3X'.P.P.L.L.L.P.L.P.F.k.z.l.l.l.l.l.l.l.l.l.l.l.l.l.l.l.l.l.l.l.l.l.l.l.l.l.l.l.l.l.l.l.l.l.l.l.l.l.z.",
"Q.).).`.8XqXyXsXpXqX|.(.(.].!.L.P.P.L.P.L.L.P.F.k.k.k.k.l.k.k.k.k.k.l.l.l.l.l.l.l.l.l.l.l.l.l.l.l.l.l.l.l.l.l.l.z.l.l.l.l.l.l.l.",
"`.`.`.|.9XwXdXsXdXuX9X0X[.).Q.L.L.L.P.P.L.P.L.L.D.c.G.G.G.F.D.D.D.D.z.z.k.l.l.l.l.l.l.l.l.l.l.l.l.l.l.l.l.l.l.l.k.k.l.l.l.x.x.c.",
"'.9X9X9X8XwXdXsXsXdXpX9X X(.`.(./.W.L.L.L.P.P.L.P.P.L.P.P.P.P.P.L.P.J.J.F.x.k.z.l.k.l.l.l.l.l.z.l.x.l.l.l.k.k.x.D.D.G.G.G.L.P.Q.",
"[.9X9X9XyXsXsXsXsXdXwX8X X`. X).).).!.W.L.L.L.L.L.J.L.L.L.P.L.L.L.P.L.P.P.K.G.D.z.x.z.l.l.l.l.k.k.k.k.l.F.J.Q.W.W.W.Q.(.).). X0X",
"8X9X8XeXdXsXsXsXsXyX9X9X3X[.`.).).).).).(./.!.!.!.!.Q.!.P.P.P.L.P.L.L.P.L.P.L.J.L.G.F.l.x.l.x.D.G.J.Q.`.(.).(.(.).(.`. X9X8X0X9X",
"9X9X4XwXsXsXdXsXdXwX8X9X X(.).).).).|.).).`.`.`.).).(.!.P.L.L.P.L.P.L.P.L.P.J.L.G.z.c.D.G.P.Q.).`.[. X`.`.`.[.|.|.[. X8X8X8X4X4X",
"8X8XwXsXsXnXsXsXsXqX9X9X9X X|.).).`.`.).).).).).!.!.W.L.L.L.L.L.P.P.P.P.L.L.K.J.L.W.!.). X3X3X8X}.3X9X}.8X9X8X9XeXqXwXpXpXuXpXpX",
"uXuXsXsXhXlXsXsXdXwX8X9X9X9X X).`.(.).).).`.`.).`.).(.P.L.P.L.L.L.L.K.K.L.Q.`. X0X9X9X9X9X9X9X9X9X9X8X9XqXyXuXpXpXpXpXyXsXyXqXqX",
"sXsXnXmXxXcXnXdXdXuX9X0X8X X).).`.)./.).).`.).).).).).(.P.L.W.W.Q.).|.3XwXpXsXpXyXqX9X9X0X9X4X9X9X8X8X9X9XqXqXqX9X9X9X.X|.'.).).",
"nXhXxXxXlXcXhXdXpXqX4X9X X X).).).~._.`.).).`.).).).).).^.(.'. X9XwXsXpXuXyX9X3X X X|.`.3X9X9X9X9X9X9X9X9X9X3X8X8X X[.'.).!.!.Q.",
"lXcXmXzXhXdXpXwXqX8X0X0X3X X`.`.U.>.+X).`.).).(.^.(.[..XwXpXuXwXwXqX9X X`.(.(.(.(.).(.`.9X9X0X3X X X X[.[.[.).`.`.).).).P.L.L.L.",
"sXsXsXsXsXsXyX3X8X4X9X4X4X3X`.|.U.<.<XQ.).'.|. X8XyXpXpXqX.X.X[.'.'.`.).).`.).`.).`.).`.[.`.`.).).).).(.).).).).`./.Q.P.L.L.P.P.",
"sXsXsXsXsXdXsXyXyXyX4XwX4X9X4X4XU.j.@X9XwXqX9X9XeXqX.X'.^.).).).).).).(.`.).`.`.`.`.`.`.).).).).).).).).).).).).).(.(.(.!.!.(./.",
"sXsXsXsXsXsXsXsXpXsXpXuXpXsXuXsXg.@XgX9X3X[.].).(.^.).).).(.!./.(.).`.(.).).).(.(.).(.).).).).).).).).).).).'.).'.`.).'.'.'.|.|.",
"sXsXsXsXsXsXsXsXsXsXyXwXwXwX9X9X>.1X1X!.'.).).).`.).(.(.~.6XmXrX4X4X{.`.`.`.`.`.`.`.'.`.[.`.)..X[.|.|.|. X X}. X4XqXwXeXeXeXyXpX",
"sXdXsXdXdXdXdXsXwX9X8X9X8X8X9X9X>.gX1X{.4X|.`.`.).|. X0X4XgXbX:XJ =XwX0X9X9X4X9X9X9X9X8X0X.X.X.X9X9X9X9X9XqXyXsXuXsXdXnXmXmXhXmX",
"sXsXsXyXiXyXyX9X3X8X8X8X4X8X9X XI.>X2X.XqXqXqXwXeXyXyXeXwXxXBX%XM *XiX0X9X9X3X4X.X.X8X9XrX6X6X6X6XMXnXhXmXhXvXjX:XNXxXlXlXxXxXxX",
"sXsXsXwXwXwXwXwXaXwXeXiXwXyXyX4X<.cX<XwXuXyXwXwXqX4X}.%XsXcXBX$XF *X<XI.qX4XrXnXMXnXnX6X#.;X,X;X] ,XxXlXBX=XOXOX| cXcXlXlXcXcXNX",
"dXsXdXdXdXdXuX<X<X5XgXsXtXsXMX2X+XxX6XnXyXeXyXyXwXeX7XY j.=XBX$XD ) I r +Xv _ %.>X$X&X%.%.;X,X-.W ,XlXcXgXj ] E #.lXhXxXcX+X,.,.",
"sXsXsXsXpXfX#X  l %.#.oX$XdXfX#XOXOX&X,XhXsXdXdXdXfXtXR - OXBX%XW | _ j x k &X~ n : I ] @.;X:.-.M -.gXgX+X; &.( $.bXvXcXvXv X X ",
"dXnXnXnXMXMXXX: ' ] _ ' %.jXMX%XOX_ o.} jXmXzXvX*X-X:Xl 1 $X:Xc / Y h ' ' v =.o.s k k 7 W &.*.%.| O.) T s x I s / oX:X>XvXXX  5 ",
"lXcXxX$X_ lXXX, _ U k _ #.kXcXoX,.] +.! ,XlXcXjXD O.&Xu , $X_   _ x   z -.x *.#., . 8 b [ / ) -.=.O.) W Y I l f   O s : @.I   * ",
"cXlX>X*.;.-Xc f j X c  .-.bXoX_ %X( O.S -XcXvX*XA +.| y : *XR , R R   3 @.I o.} 1 O q q F { [ / | N o { k I k g 3 5 j f A C X * ",
":X#.-.;.:.-X] $.&X/ _ T #.-.J _ v #.O.H $.,X&XC S ..B q X @.E , x L X y #.x o.} 2 X 9 4 W ^ Q 6 N C Y } 6 3 y h < 2 j l e p o # ",
"_  .;.;.:.#.-.=.+.:.{ n K T K X.> $.+.Q ) %...w S W B e O A L : z L X y X.z &.Q 4 o # o W ^ Q $ s | @.#.B > 5 h < 5 g : X o # @ ",
"_ X.*.O.Q U ;.o.*.*.C t D a  .} > } K d   C G p C Y s X X e 3   z z 5 t G L ..Q 4 o * o K ~ ! q p 5 A :. .+ 5 g > < # # # # @ @ ",
"S  .-.~ H L &...O.Y : > 4 u X. .m { Y p 5 S G 3 e 0 s t / Z . s z $ < *   S ^ } 4 O * O K ^ ^ i   X C +.O.; > 3 3 # # @ r 4 O @ ",
"5 { =.^ ! / O...Q a o 3 < y Q D t | =.o.[ G B V a u n S ~ D p ;X) X < = X C ^ Q * O * X G ! K / { ; i  .{ 0 * * % .   X . % = * ",
": P S S 9 ) [ 7 9 = o o = & n w   F G B D w   8 $ 8 6 w q 6 = D S $ 9 6 i m [ [ 8 ; ; % ) } $.) C q 6 % 6 q 0 % d _ U Y V a 6 8 ",
"' x j c h a d j k 5 2 5 2 e t 4 e s 0 8 5 2 2 2 5 2 4 1 , q 4 t 9 - = * s n Z Q J q $ 4 d S Y V   e 9 q 0 - y   k I l E P z * - "
};
