/* XPM */
static char *_50613e6e7244f0cd0477d46143679cdMNwGVadVE5cDaySR[] = {
/* columns rows colors chars-per-pixel */
"64 64 213 2 ",
"   c #010000",
".  c #0B0301",
"X  c #030A04",
"o  c #0C0905",
"O  c #01040B",
"+  c #090609",
"@  c #04090B",
"#  c #0C0C0A",
"$  c #130200",
"%  c #1B0000",
"&  c #130B04",
"*  c #1C0D02",
"=  c #160E08",
"-  c #0C1008",
";  c #1D1105",
":  c #15110A",
">  c #1B130A",
",  c #1E1809",
"<  c #030C11",
"1  c #0D0D10",
"2  c #071417",
"3  c #141413",
"4  c #1D1913",
"5  c #191917",
"6  c #230200",
"7  c #280500",
"8  c #240C02",
"9  c #2B0C02",
"0  c #340500",
"q  c #211103",
"w  c #2A1403",
"e  c #22160A",
"r  c #2C160B",
"t  c #24190C",
"y  c #2B1C09",
"u  c #331500",
"i  c #351B08",
"p  c #241D13",
"a  c #2C1D13",
"s  c #211D1B",
"d  c #2D1E1A",
"f  c #341E10",
"g  c #382309",
"h  c #252115",
"j  c #2C2114",
"k  c #23211B",
"l  c #2C251A",
"z  c #322215",
"x  c #3B2816",
"c  c #32231A",
"v  c #332A1C",
"b  c #222120",
"n  c #2B2928",
"m  c #332C23",
"M  c #3A2E25",
"N  c #393229",
"B  c #243135",
"V  c #323434",
"C  c #3C3836",
"Z  c #5F0F07",
"A  c #471D0E",
"S  c #690905",
"D  c #4D2D12",
"F  c #472818",
"G  c #65311C",
"H  c #4C2521",
"J  c #473627",
"K  c #583A26",
"L  c #443B37",
"P  c #5D3B31",
"I  c #3E413D",
"U  c #4C402C",
"Y  c #49443C",
"T  c #574337",
"R  c #72442C",
"E  c #6C4D3B",
"W  c #3C474B",
"Q  c #484741",
"!  c #4C4C49",
"~  c #514A42",
"^  c #52514D",
"/  c #5B554A",
"(  c #485253",
")  c #585754",
"_  c #5D5A55",
"`  c #62584A",
"'  c #625B57",
"]  c #5E635E",
"[  c #656156",
"{  c #64615C",
"}  c #7A6550",
"|  c #4B5E64",
" . c #4C6168",
".. c #5A6566",
"X. c #5D696B",
"o. c #4A6670",
"O. c #5A6D74",
"+. c #5E7176",
"@. c #636562",
"#. c #676A68",
"$. c #716C66",
"%. c #6F726D",
"&. c #74746F",
"*. c #687678",
"=. c #787977",
"-. c #99251B",
";. c #885B44",
":. c #AD634B",
">. c #847D7A",
",. c #A67566",
"<. c #87817F",
"1. c #5B7C88",
"2. c #647B83",
"3. c #5F808D",
"4. c #5B8695",
"5. c #5E8896",
"6. c #5E8B9B",
"7. c #6E8188",
"8. c #798485",
"9. c #628895",
"0. c #618C9B",
"q. c #6D8D9A",
"w. c #738D97",
"e. c #75929D",
"r. c #7C929C",
"t. c #7C96A1",
"y. c #7B99A5",
"u. c #878784",
"i. c #8D8C8A",
"p. c #918A86",
"a. c #938D8B",
"s. c #94918E",
"d. c #8A9597",
"f. c #82959E",
"g. c #969593",
"h. c #9D9C9B",
"j. c #A29E9C",
"k. c #9AA09F",
"l. c #A6A29F",
"z. c #8197A1",
"x. c #8499A2",
"c. c #8F9DA3",
"v. c #929FA2",
"b. c #8FA1A6",
"n. c #95A1A4",
"m. c #9CA5A6",
"M. c #A9A8A5",
"N. c #A6ABA9",
"B. c #A9ADAA",
"V. c #B0AAA6",
"C. c #B1AEAB",
"Z. c #AEB1AE",
"A. c #B2B1AE",
"S. c #B5B5B2",
"D. c #B8B5B3",
"F. c #BBBAB6",
"G. c #BFBCB8",
"H. c #C1BEBA",
"J. c #C5C2BE",
"K. c #C7C4C0",
"L. c #C9C6C2",
"P. c #CCCAC5",
"I. c #C8C7C9",
"U. c #CFCCC8",
"Y. c #D1CECA",
"T. c #D4D1CD",
"R. c #D7D3D1",
"E. c #DBD5D3",
"W. c #DFD8D7",
"Q. c #DFD7D8",
"!. c #DFD8D8",
"~. c #E0D8D6",
"^. c #E3DBDB",
"/. c #E8DFDE",
"(. c #E6E0DE",
"). c #E9E0DF",
"_. c #E5DCE3",
"`. c #E9DFE7",
"'. c #E7DCEE",
"]. c #E9DDEE",
"[. c #E6DBF0",
"{. c #E8DDF0",
"}. c #E6E3E4",
"|. c #ECE3E2",
" X c #EDE3EB",
".X c #F1E7E5",
"XX c #F4EAE6",
"oX c #F1E6EA",
"OX c #F5EBE8",
"+X c #F6ECE9",
"@X c #F6EDEB",
"#X c #F6EEED",
"$X c #F7EFED",
"%X c #F9EFEC",
"&X c #F7F0EE",
"*X c #F8F0EE",
"=X c #FBF1EE",
"-X c #F4ECF1",
";X c #F9F2F1",
":X c #FBF4F3",
">X c #FBF4F5",
",X c #FAF5F5",
"<X c #FBF6F6",
"1X c #FCF7F7",
"2X c #FBF8F9",
"3X c #FEFAF9",
"4X c #FCF9FA",
"5X c #FDFAFB",
"6X c #FEFAFB",
"7X c #FDFBFC",
"8X c #FEFBFC",
"9X c #FEFCFD",
"0X c #FFFCFD",
/* pixels */
"8X8X8X8X8X8X8X8X8X8X8X8X8X8X8X8X7X7X0X8X8X8X8X8X8X8X8X8X8X8X8X8X8X8X8X8X8X8X8X8X8X8X8X8X8X8X8X8X8X8X8X8X8X8X8X8X8X8X8X8X8X8X8X8X",
"8X8X8X8X8X8X8X8X8X8X8X8X8X8X8X8X0X8X7X8X8X8X8X8X8X8X8X8X8X8X8X8X8X8X0X0X8X8X8X8X8X8X8X8X8X8X8X8X8X8X8X8X8X8X8X8X8X8X8X8X8X8X8X8X",
"8X8X8X8X8X8X8X8X8X8X8X2X6X8X8X6X;X1X8X8X8X8X8X8X8X8X8X8X8X8X8X8X8X8X8X0X0X8X8X8X8X8X8X8X8X8X8X8X8X8X8X8X8X8X8X8X8X8X8X8X8X8X8X8X",
"8X8X8X8X8X8X8X8X8X8X8X6X6X8X8X2X X$X8X8X8X8X8X8X8X8X8X8X8X8X8X8X8X8X8X,X,X8X8X8X8X8X8X8X8X8X8X8X8X8X8X8X8X8X8X8X8X8X8X8X8X8X8X8X",
"8X8X0X8X8X8X8X8X8X8X8X8X8X8X6X8X,X$X8X0X8X8X8X8X8X8X8X8X8X8X8X8X8X2XOX X X*X0X&X,X0X0X8X8X8X8X8X8X8X8X8X8X8X8X8X8X8X8X8X8X8X8X8X",
"6X8X8X6X8X8X6X8X8X8X8X8X8X8X8X8X,X$X;X1X8X8X8X8X8X8X8X8X8X8X8X8X8X8X*X X{. X&X X:X0X8X8X8X8X8X8X8X8X8X8X8X8X8X8X8X8X8X8X8X8X8X8X",
"8X0X0X0X6X;X;X6X6X6X0X8X8X2X6X8X8X,X&X&X$X8X0X8X8X8X8X8X8X8X8X8X8X8X0X-X X XOXOXoX:X8X8X8X8X8X8X8X8X8X8X8X8X8X8X8X8X8X8X8X8X8X8X",
";X-X;X,X2X;X X X{.-X;X,X8X6X6X8X8X0X0X6X6X0X,X8X0X7X8X8X8X8X2X0X8X8X0X8X1X:XOXOX:X1X8X8X8X8X8X8X0X8X8X8X8X8X8X8X8X8X8X8X8X8X8X8X",
"].'.`. X$X0X-X X].].]. X&X0X8X8X8X8X8X8X8X8X8X2X6X8X8X8X8X;X+X}.1X0X8X8X8X0X,X,X0X2X0X8X8X8X8X1X1X6X8X8X8X8X8X8X8X8X8X8X8X8X8X8X",
"].{.{.{. XOXOXOXOXOXOXoXoXOX,X8X8X8X8X8X8X8X8X8X6X8X8X8X8X,XOX/.2X0X8X8X8X8X0X0X7X8X8X8X8X6X,XOX|.OX6X8X8X8X8X8X8X8X8X8X8X8X2X7X",
"].{.].{.'.].OXOXOXOXOX:X6XOX;X8X0X8X;X1X8X8X8X8X8X6X8X8X8X8X;XL.XX,X8X8X0X0X8X8X8X8X8X2X:X&XOXOXOXOX2X8X8X8X8X8X8X8X8X8X8X8X8X8X",
"].'.]. XoX XOXOXOXOXOXOX,X,X%X&X:X,X%XOX$X%X8X8X8X8X8X,X8X8X0XP.|.OX*X&X1X8X8X8X8X0X0X;X|.OXOX,X8X6X8X8X8X8X8X8X8X8X8X8X8X8X8X8X",
"].{.'.oXoXoX XoXOXOXOXoXOXOXXXXXOXOXXXoXOXOXOX*X$X%X;X&XOX6XoXu.E.0X2X:X8X0X8X8X8X,X&XOXoXoXOX$X;X*X;X8X6X6X6X6X0X6X6X6X8X0X8X8X",
"{. X X X{.'.'.].OXOX X'. X XOX$XOXOXOXOXOXOXOXXXOXOX,X8X,X8XH.  a.0X8X:X:X2X6X6X$XXXOXXX&X1XOXOX.X.XXX1X0X8X8X0X0X0X0X0X:X-X X&X",
"'.'.].].].'.].].oXOXOXXXoXOXOXOXOXOXOXXXXXOXOXOXOX$X,X,X8X0Xp.  g.0X2X,X,X8X2X6X$XOXOXXX1X0X8X2X;X;X:X0X0X1X8X2X,X;X&XOXoX`.oX*X",
"'.'.`. X].].].].oXOXXXOXOXOXOXOXOXOXOXXXOXOXOXOXOXOXoXOX&X0XH.  A.0X,X2X2X8X8X6X,X$XOXOX&X1X0X0X8X6X8X;XOXoXOXOX|. XXXOXOXXX&XOX",
"'.'.{.'.{.{.'.{.`.oXOX$XOXOXOXOXOXOXOXOXXXOXXXOXOX+X*XOX.X1XY.  E.0X0X;XXX*X6X1X6X*X&XOXXX1X6X,XOX X|.}.`._.{. X`. XOXOX:X*X*X.X",
"'.'.{.{.{.'.].{.'.`._.|.OXOXOXOXOXOXOXXXOXOXOXOXOX*X0X6X+X*XH.  E.0X,X;XOXOX6X8X6X8X:XOXOXOX X|.^.^.^.^.!._.^.!.|.OXoXXX|.}.|.].",
"{.{.].{.oX X{.'. XoX|.^._.|. XOXOXXXOXOXOXOXOXOXOX%X*X+X+X=XJ.  G.6X1X:XOXXX+X*X+X8X8X8X:X.X^.^._.^.^.^.~.|.W.~. XOXOX~._._.`._.",
"'.]. X XoXoX XoXOXOXOXoX|.|./.XXOXOXOXOXXX+XXX+XXX.XXXXX.X=X~.  g.&X+XOXOXOX*X+XOX,X=X+X*XOXXX|._.^.~.^.!.T.E.|.OX&XXX|.^.^.^.`.",
"'. X|.oXOX$XOXOX+XOXXXOX+X+XOXOXOXOXOXOX+XXX+X+XXX).).OXXX=XL.  p.*XoX.X.X.X).|.|.+XXXXXOXOX*XOX^.^.~.~.^.^.^.|.OXOX*XOXoXoX%XOX",
"'.'.`.^.|.oXOXXXXXOXOXOXXXOXOXXXOXOXOXOXOXOX+XXXOXOX.X)./.OXV.  p.*XXX).OX^.~.^.^.^.~.|.OXOXOXOXOXOX|.oXOXOXOXOXXXXX).oXXXOXOXoX",
"`.^.`._.|.oXOXOX+XOX+XXXOXOXOXOXOXOXOXOXOX|.XXOXOXOXOX.X^.^.a.  a.=XOXOXOX|._.^.^.^.^.OXOXOXOX+XOXOXOXOXOX|.|.|.~.^.~._.|. X/.W.",
"oX X.XOXOXOXOXOXXXOXOXOXOXXXOXXXXXOXOXXXOXXXXXOXOXOXXX/.OXoXa.  p.+XOX+XOX+X|.^.~.~.).*XXXOXOX+XOX|.).).^.~.~.^.~.~.^.^.^.^.^.^.",
"*XOXOXOXOXOXXXXXOXOXXX+XOXOXOXXXOX+X+X+XOX+XOX+XOX+XOX.X+X+Xa.  j.*X.XXXOXXX.X).^.).).).).^.).OX).^.^./.^.).^.~.^.E.T.~.~.~.^.^.",
"OXOXOXOXOXOXOX+XOXOXOXOXOX+XXXoX.XXXXXOX+XXXOXXXXX+X+X+X+XoXu.  l.:XXXXXOXOX1X*XXXOX.X).^.~.^.XX.XOXXXOX+X+XOX^.^.E.T.^.|.|.XXOX",
"OX).|.|.OXXXOXOX+XXX+XXX|.).XXOX.X.X+X+XOXOX+X+X+X+XXXXX+X+Xg.  a.*XOXOXOX+X*XOXOXOXOXXX|.|.OXOXOXOXOXOX+XOXOXXXXX|.oX+XOXOXOXOX",
"W.|.OXOXOX+X+XOX+XXX).XX/.W.|.OX+X+XXXXX+X+XXX+X.X.X+X.XXX|.a.  g.|.OXOXOXOX+X+XXXOXOX.XOXOXOXOXOX*XOXOXOX%XOXOXOXOX+XOX+XOXOXOX",
").XXXX|..XOXoXoXXXXX.X).).~.|.*X+X+XXX).).)..X+X).^.^.^./.Y.u.m &.~.&X.XXX.X.X).).).^.).OXOXOXOXOXOXXXOXOXOXXXXX_.|.XXoX).OXOXXX",
"/.*XXX^.^.~.~.~.^..XOX.X.XXX|.OX+X.X)..X).).XX.X/.R.~.^.).J.=.V ' Y..X.X)./.(.^.W.W.T.W.)..X^..XXX.X).^.).).(.).^._.^.~.^.^.^.~.",
").XXOXXX.X/./.|.~.^.^./.|.).^.).).^..X*X+X+X+X.X/.P.E..X).Y.$.  ` ~.OX/.^.E.R.T.U.R.U.E.^.^.^.^.~.W.E.T.W.W.W.E.E.E.T.T.W.E.W.~.",
"^.^.^.~.^.^.|.XX/.^.^.^.^.^.^.^.^.^.).).).).).)./.~.^.).).T.$.  [ ^..X~.^.~.E.R.W.^.~.).^.^./.|.T.Y.Y.Y.U.Y.U.U.U.U.U.U.U.U.W.~.",
"^.^.!.^.^.^.^.^.^.^.W.^.W.^.!.(.^.^.^.~.^.^.~.~.^./.^.~.^.V.#.n >.E.^.~.^.^.^.^.^.^.(.).^.^.^.W.T.P.Y.J.J.T.U.U.P.U.Y.Y.U.U.T.U.",
"^.^.^.^.^.~.^.(.^.E.T.E.R.^.^.!.^.^.^.^.^.~.|.^.^.^.~.~.^.M.i.m ) V.|.~.W.W.^.^.^.^.^.~.~.~.T.U.U.U.T.U.U.T.T.U.P.T.Y.Y.Y.Y.Y.Y.",
"R.^.W.E.!.(.W.W.^.^.~.^.^.^.W.(.^.^.^.^.^._.).).^./.|.^.`.C.$.n k j.).W.~.W.^.^.^.^.T.T.T.T.U.Y.U.T.L.P.L.L.J.J.U.U.U.Y.Y.Y.Y.U.",
"Y.T.T.Y.E.E.Y.U.W.E.W.^.^.(.(.^.^.^.^.^.).(.~.~.^.^.^.^.~.a.$.s <.V.(.W.^.Q.E.Q.^.E.T.U.Y.Y.Y.Y.T.U.L.J.J.L.U.J.J.T.U.Y.Y.Y.Y.P.",
"J.J.U.U.U.U.U.Y.T.U.T.E.E.W.W.W.^.~.!.~.^.^.~.R.~.~.E.E.L.V   b o &.T.Y.U.T.T.U.E.T.T.U.U.T.T.U.U.U.T.U.U.U.T.U.L.Y.Y.U.Y.Y.U.T.",
"G.G.G.J.J.J.J.L.U.T.T.U.Y.Y.Y.U.Y.U.U.T.T.T.T.U.U.U.U.R.i.  5       g.T.U.Y.Y.Y.T.T.T.T.T.U.T.T.T.L.U.T.Y.T.U.U.T.J.J.J.J.J.H.J.",
"U.G.S.G.F.G.G.S.J.J.J.J.J.P.J.J.G.G.K.K.L.P.U.U.L.T.U.T.a.  5 3 k   j.E.P.U.P.Y.U.J.L.L.L.Y.U.Y.Y.L.J.J.L.L.J.J.J.J.H.J.G.G.G.F.",
"P.L.J.J.G.G.J.L.L.J.J.G.J.J.H.H.K.K.J.G.H.H.H.J.L.P.P.R.i.  5       B.E.U.U.T.Y.Y.U.J.G.G.J.U.J.J.J.J.G.G.G.G.G.G.H.H.G.G.J.H.G.",
"L.U.T.T.U.T.U.T.Y.Y.T.Y.Y.Y.Y.Y.T.L.L.P.P.L.L.K.K.J.K.L.@.  n ) ^   i.K.K.L.P.P.U.P.J.G.G.G.J.J.F.H.J.F.G.J.J.S.S.F.Z.Z.F.G.H.F.",
"J.J.J.J.L.P.U.U.U.P.L.U.U.J.J.Y.T.U.P.T.E.E.E.E.R.Y.Y.D.C   s.T.V.  #.K.H.G.G.H.H.G.G.J.G.D.G.F.F.J.F.J.G.G.G.J.H.J.H.J.J.G.G.J.",
"J.G.G.J.J.G.J.J.H.H.G.H.F.H.J.P.K.P.Y.P.K.J.J.J.H.K.Y.h.    C.T.V.  ! J.L.J.J.J.K.J.J.K.J.J.H.H.J.H.J.F.J.J.J.S.S.F.F.G.F.F.S.G.",
"G.J.J.G.G.G.G.G.H.H.H.H.H.H.H.H.G.G.H.G.G.G.J.G.H.G.H.u.    j.J.F.!   l.J.F.F.F.F.F.F.F.G.H.H.H.H.H.G.J.F.F.H.B.B.N.N.B.N.N.N.N.",
"J.G.G.G.J.J.J.F.J.H.H.H.J.J.F.J.J.G.G.J.J.J.J.G.H.L.C._   ^ H.J.G.@.  >.S.N.B.B.B.B.N.N.B.B.B.B.B.B.Z.Z.B.B.B.B.N.N.N.N.N.N.N.B.",
"Z.B.N.N.Z.A.A.S.F.S.F.F.H.F.F.J.J.G.J.G.A.D.F.F.D.B.&.    C =.=.%.)   C g.B.N.B.N.B.B.B.N.N.N.N.l.B.B.N.N.N.B.N.B.B.B.B.B.N.N.N.",
"N.B.Z.Z.N.Z.B.Z.A.A.A.A.C.S.Z.S.S.D.D.A.Z.N.Z.N.B.#.O 5 X   O       5   ..B.N.B.B.m.m.N.N.B.N.N.m.N.m.m.m.m.m.v.k.m.m.m.c.c.c.f.",
"k.k.k.m.n.n.n.k.n.n.n.k.v.v.v.v.v.v.v.n.n.n.n.v.n...  3   O 2 2 2 O 1   W z.r.f.f.f.f.r.r.f.e.e.q.e.q.w.q.q.q.q.q.q.q.q.q.q.q.e.",
"f.,.p.y.f.f.f.r.z.f.f.f.z.f.f.f.f.f.f.z.f.f.f.z.r.Y 6 d a i 0 0 a y 4 6 z 3.6.5.0.w.9.0.0.6.6.4.4.4.4.4.4.5.4.4.4.4.4.4.4.4.4.4.",
"8.;.>.y.e.t.z.t.t.z.t.f.x.z.z.x.x.v.x.z.t.t.f.r...6 l w & l L d 8 t t r $ W 7.o.1.X...*.*.*.7.6.0.0.0.5.3.4.6.6.6.6.0.6.0.9.9.0.",
"j   n  .2.O. . . .2.w.*.#.*.X.O.2.2.#.#.*.#./ ` e   #   u Y ! I   p x l   . D C N x Y U y g Y X.X.( +.] U Y *.*.*...X.X.X.] ] | ",
"  +     $         K T   $ u u % w l % 8 u u x c # t : 8 A G K , i u d z ;   p k T T B N m h y u g % w x N z g g x 6 $   6 w % % ",
"    + 2 O @ < 1 O c * O @ O 4 s > & O O   4 =   & :   .   8 c   L P 8 y w   & . X -           <   O O o     O   > O O < O + O O ",
"      . +           O     X       @   # 1     X               a L R F p             # X X       X   X   #     X +         X     ",
"                                            O   . +       $ w x i $ f a O   s &   .           .                                 ",
": :   ) ]   o : & * ; .     o   O n   @.=.Y   . , ;   .   : e   p v # t q   x z                   . @ .                         ",
"h p l _ ^   o j m N k > p 4 h 7 d ( 3 ^ @.C     t { N , p e p o v J j e .     : : O o :   .   S L 2 .                           ",
"@         # 5           a a j x A % 8       :   $ ' _ m >     . 8   .         & .         . X S H   s v                         ",
"  1   1 b     C &.=.#._ J z p v v i J J % q : q m   C s O . v U f * 8 9 *     : : & & o =     X % r ! P X                       ",
"Y   # 5   B l.J.T.P.J.B.i.[ u   ; z z z ) L 8 N p l a & & . M Y a   # k $ k k   4 > & > t     c . N #.n                         ",
"E.' O   I B.T.L.G.S.F.J.B.u.E j > -   $ ( Y . @   :   > q $ & .   . ; s   l m * ; . w i 8 X   X > O ! V   X                     ",
"I.D.  ~ N.Y.J.B.b.n.N.S.S.d.&.D l , j r       t a & > $ > q h F r X & * e . $ e e = &   6 H F 6 < I     +                       ",
"Z.A.L i.L.J.N.s.u.f.b.N.G.m.<.T y z p g M #.=.x l , $ * = j J f 7 x y p j f F t i   D R Z S 0 G 4 k d             X             ",
"n.k.u.A.G.B.8.} } %.d.N.S.Z.v.=._ Q   / &.x.n.8.` m . a 0 9 K r o A 8 b H K J f H M K R -.:.` 0 A ; . w . ; & r c     &   o     "
};
