/* XPM */
static char *_cd9b4f19c654c8fd02db8b5f89d168d62BkeaTXgfDw9faZ[] = {
/* columns rows colors chars-per-pixel */
"64 64 206 2 ",
"   c #7D3000",
".  c #8E0200",
"X  c #910600",
"o  c #8F1600",
"O  c #921900",
"+  c #AC0200",
"@  c #AF1C00",
"#  c #922500",
"$  c #942C00",
"%  c #813A0B",
"&  c #963300",
"*  c #963B00",
"=  c #993D00",
"-  c #AF2A07",
";  c #B12F08",
":  c #AF361C",
">  c #B13415",
",  c #B2371A",
"<  c #B2391D",
"1  c #B33D24",
"2  c #964201",
"3  c #9A4400",
"4  c #9C4A01",
"5  c #9C4D0C",
"6  c #9F500E",
"7  c #9C4E14",
"8  c #9B4F1B",
"9  c #9E5014",
"0  c #9D511C",
"q  c #A04E00",
"w  c #AA5C00",
"e  c #A25308",
"r  c #A05317",
"t  c #A1551D",
"y  c #AD6401",
"u  c #AD650B",
"i  c #AF6809",
"p  c #B16907",
"a  c #AD6614",
"s  c #AF6815",
"d  c #AD661A",
"f  c #AE691C",
"g  c #B16B16",
"h  c #B16C1C",
"j  c #87492B",
"k  c #9E5423",
"l  c #9F5629",
"z  c #9F592D",
"x  c #894E31",
"c  c #8C5438",
"v  c #8E563A",
"b  c #B44127",
"n  c #B4442C",
"m  c #A05623",
"M  c #A25926",
"N  c #A05729",
"B  c #A25B2B",
"V  c #B74A33",
"C  c #B64B34",
"Z  c #A35E32",
"A  c #B6523D",
"S  c #B8543E",
"D  c #AF6A23",
"F  c #A7602D",
"G  c #AF6D2C",
"H  c #B16D23",
"J  c #B16E2B",
"K  c #B47026",
"L  c #B3712C",
"P  c #A56134",
"I  c #AE6D33",
"U  c #A6643B",
"Y  c #A9673C",
"T  c #B06F31",
"R  c #AF7039",
"E  c #B37334",
"W  c #B87937",
"Q  c #B4753B",
"!  c #B6793E",
"~  c #B87A3E",
"^  c #915B40",
"/  c #B75641",
"(  c #B95741",
")  c #BA5A44",
"_  c #B95C46",
"`  c #95644B",
"'  c #9A694F",
"]  c #A76741",
"[  c #A86B45",
"{  c #AA6E48",
"}  c #BB624C",
"|  c #AB714C",
" . c #B47741",
".. c #B67A42",
"X. c #B97D43",
"o. c #B67D4A",
"O. c #B87F49",
"+. c #BD6752",
"@. c #AE7653",
"#. c #AE7A58",
"$. c #B17A56",
"%. c #B87659",
"&. c #B27D5A",
"*. c #C1735D",
"=. c #C17661",
"-. c #C27B64",
";. c #C37E68",
":. c #CA8C01",
">. c #C98C0A",
",. c #C98D19",
"<. c #CA8E23",
"1. c #CB9125",
"2. c #CC932C",
"3. c #CD9433",
"4. c #CD953C",
"5. c #CF9938",
"6. c #BA814C",
"7. c #BB8453",
"8. c #BB8758",
"9. c #B9845B",
"0. c #BE8A5B",
"q. c #AB876E",
"w. c #B58362",
"e. c #BF8E62",
"r. c #BA8D6C",
"t. c #AE8A71",
"y. c #BD9273",
"u. c #B4937A",
"i. c #CD9641",
"p. c #CE9944",
"a. c #CF9B4A",
"s. c #D09C46",
"d. c #D19D49",
"f. c #C08D5E",
"g. c #CF9D53",
"h. c #D19E51",
"j. c #D2A25B",
"k. c #C18F62",
"l. c #C4836C",
"z. c #C19165",
"x. c #C3956B",
"c. c #C5986F",
"v. c #C78973",
"b. c #C09676",
"n. c #C69B73",
"m. c #C89E76",
"M. c #C7957A",
"N. c #C39C7C",
"B. c #C99E79",
"V. c #D3A664",
"C. c #D4A869",
"Z. c #D5AA6C",
"A. c #CAA27C",
"S. c #D5AD74",
"D. c #D6AE79",
"F. c #D8B077",
"G. c #D7B17D",
"H. c #D8B27D",
"J. c #C59F80",
"K. c #CE9C84",
"L. c #D09F86",
"P. c #C6A283",
"I. c #CBA583",
"U. c #CEA985",
"Y. c #C3A78C",
"T. c #CBA689",
"R. c #CDAB8A",
"E. c #D1A687",
"W. c #D1A48A",
"Q. c #D1AD8B",
"!. c #D9B583",
"~. c #DBB886",
"^. c #D3B18E",
"/. c #DAB788",
"(. c #DCBA8B",
"). c #C6AC92",
"_. c #CDAE91",
"`. c #D5AC93",
"'. c #CEB296",
"]. c #D4B494",
"[. c #D6B896",
"{. c #DCBD92",
"}. c #D5B599",
"|. c #D9B59A",
" X c #D5BA9B",
".X c #D9BD9C",
"XX c #D7BDA0",
"oX c #DABEA2",
"OX c #DFC196",
"+X c #DEC19B",
"@X c #E0C49A",
"#X c #DCC3A4",
"$X c #DEC6A9",
"%X c #DFC8AA",
"&X c #E1C6A7",
"*X c #E2C9A5",
"=X c #E2CBAC",
"-X c #E6D1AF",
";X c #E3CEB1",
":X c #E6D2B4",
">X c #E8D5B6",
",X c #E7D4B8",
"<X c #E9D6B9",
"1X c #EADABD",
"2X c #EDDDC1",
"3X c #EFE0C4",
/* pixels */
"k k 0 k k m m m B * `.2XG.2.s.4.p.4.p.4.4.p.5.g.>X^. .Q Q Q E E Q Q Q ~ d U.1X#X_ _ _ ) ( ( ( A V / 1 M.2XP.= B k M k k k m m t ",
"8 0 0 k 0 k 0 0 B * P.2XZ.3.s.i.4.p.4.p.p.p.4.a.>XR.p Q E Q Q Q T Q Q  .h I.2XW.> / ( _ ( ( A A A ( n ;.1Xr.* k 0 k 8 0 M m 0 k ",
"k k k B M M M M B q J.1Xg.5.s.i.p.p.4.p.p.p.4.j.1XU.J ! Q Q ~ Q Q Q ~  .J A.2X|.1 / A A ( ( A S ( / n v.<X9.3 B k k k k k m M k ",
"3 3 4 4 4 7 e 6 m & N.1Xg.2.5.5.4.3.3.3.3.5.3.p.>XR.p Q E E E E E E J T w n.1X|.> S A S A A S A S A > -.1X#.3 k 0 k k 0 t M t 7 ",
"| #.$.w.$.| { [ [ { ].,X/.V.j.j.j.j.V.V.j.j.j.S.1X[.L E Q o.O.7.O.o.7.f.f.[.2X#X+._ A ( A S ( ( S _ *.K.1Xw.* m 0 4 e M 9 e 0 ] ",
">X>X>X1X>X:X:X:X=X<X>X>X1X1X>X<X1X:X>X1X1X>X>X<X,X1X:X#X=X:X-X;X:X:X1X<X<X1X<X1X>X=X=X:X&X&X=X;X;X,X1X1X1X=X#X*X=X#X#X*X#X=X;X1X",
"x.z.0.U.1X}.$.w.&.&.#.w.9.w.w.r.N.;X1XW.v.M.-.;.l.l.v.l.v.%.E.<X+X[.E.A.c.c.n.c.c.B.A.].:X1X=X[.[.[.I.A.U.U.A.A.A.e.=X1X[.I.U.A.",
"D E y A.3XR.# 4 2 2 4 3 2 3 3 = & oX<X_ < n V V n n b n V - l.<X0.y H H H H H J H H H y [.2XA.y H d d h H g K K L y A.1X9.y h f ",
"Q  .H A.2X`.= B B M N k l N M z 3 oX:X_ / ) S S S ) ) _ _ n l.1Xn.J O.~ Q Q Q Q ! Q  .J [.2XA.L X.X.~ X.! ..X.! Q d U.>X7.I ! R ",
"Q X.L A.3X_.3 Z B B B N B B N B 3  X;XS ( _ ) ) ( S ) _ _ V r.1Xn.H  .! ! ! ! ..! Q  .J ^.2XA.J  .X.~ ! ! ! ! ! ..f Q.,X6.I Q Q ",
"u H w m.3XP.O q 3 3 3 3 3 = = 3 O  X:XA > 1 , , b n n 1 n + ;.2Xr.w L H h h J h h g H y  X2XA.w H h H h H f s D d w T.>X! y D D ",
" X XR.%X2X:XR.T.R.R.].P._.T.T.}.].:X1X.X|.|.`.`.W.`.|.`.W.`.#X2X.Xc.c.m.A.A.A.A.I.^.].&X<X2X&XQ.A.A.n.A.n.n.A.n.R.].:X<XA.N.n.e.",
"&XoX=X#X.X#X#X=X=X=X<X<X,X=X=X.X+X.X X#X=X#X#X$X1X1X1X>X%X%X#X#X#XoX.X$X,X1X<X1X1X<X<X;X=X=X:X;X=X=X&X1X1X:X:X=X$X-X=X=X%X%X=X=X",
"s g h L L K g K L p [.1XN.w L s a L L f H h y X.1X`.Y M 0 3 2 3 3 3 2 8 r _.1X=X7.7.7.X.W X.O.W L L y A.2XU.5 k 4 B B B k 4 B P ",
"Q ! ! ! X.! ! ! X.s I.1Xe.G ! ! Q X.~ Q Q ~ Q 7.1XJ.$ l 0 k k k k k k l = N.2X].g W W W ~ ~ Q ~ ! X.D n.1Xy.= B k 0 t t 0 m 0 0 ",
"Q R Q E Q ! ~ ! Q H P.1Xk.G Q Q Q Q ! Q ! ~ T 6.>XP.3 l k k k k k M k B 3 N.3X[.J 6.W Q ! Q W Q Q  .D x.1Xw.3 B 0 k M m m k M M ",
"T I L J T E Q E E y I.1X9.u E I J J J J L E L 6.1XT.= B m 0 0 5 0 0 7 8 # y.2XoXf ! Q ! Q Q E Q Q Q u 0.<X&.4 B M N B k k k k 8 ",
"7.O.6.9.7. . .6.6.6.].1XN.6.6.o.7.7.z.9.z.7.6.z.<X].* 5 4 m B Y M M P @.@.R.1X#XX.E L L G L E E L  .9.A.<Xw.= q 3 & 3 4 5 9 5 B ",
">X:X:X1X:X=X:X<X:X,X,X>X>X>X:X:X<X,X,X<X<X<X>X<X1X1X#X#X$X=X:X:X;X=X;X,X1X2X,X2X>X=X%X#X#X#X=X*X=X:X1X1X2X=X#X#X#X}.XX#X=X=X=X:X",
"r.r.r.R.1X*XZ.D.G.S.S.Z.S.S.H.S.(.1X1X[.m.m.n.n.c.n.N.A.A.x.Q.1X:X+X(.D.!.D.!.!.F././.{.>X1X:X#X.X].R.U.R._.P.N.y.N.;X2X#X^.^.^.",
"= 4 O y.2X(.:.3.1.2.2.2.2.3.2.2.1.=X1X7.y H h H D d d s f y z.1XC.:.<.1.1.1.2.2.1.1.1.>.+X2XP.& 4 = 3 = = * = = = . N.1X9.y h g ",
"k P 3 u.2X{.2.p.s.s.s.p.p.p.s.d.2.@X<X6.Q !  .! Q Q ! R  .J c.1XS.3.p.a.p.p.i.i.p.p.p.3.+X2Xy.3 Z B B B B l B B B 3 P.1X7.! X.X.",
"N Z 2 y.2X{.2.a.s.s.s.d.s.p.s.d.2.@X;X! ! ! ! Q ! Q  .!  .D B.1XS.3.p.p.a.p.p.i.p.i.p.3.{.2Xy.2 B k k l B k B l Z * P.<XO.Q ~ Q ",
"= 3 . y.2X(.:.3.1.2.2.2.2.<.<.1.:.@X=Xp g h a d f h h h D w z.1XC.>.3.3.2.2.1.3.2.<.1.:.OX1Xy.o 3 3 3 4 3 3 4 4 4 X A.>XQ D J J ",
"T.R.P.#X2X=X(.!.(.OXOX!./.{.~.~.@X>X1X[.^.^.^.I.A.^.^.Q.I.^..X1X*XC.Z.Z.F.H.F.S.G././.OX=X<X#Xr.r.w.w.$.#.9.&.w.N.T.#X1Xe.e.e.e.",
"%X=X%X#X+X=X:X=X=X;X2X2X,X$X$X$X#XoXoX#X=X#XoX#X<X1X2X>X:X=X=X=X=X#X#X=X>X1X1X1X1X,X>X:X%X%X:X:X=X#X#X:X,X,X:X:X:X>X:X-X:X;X-X:X",
"L L L L L E L L W L  X2XJ.$ r 4 4 4 4 * 4 4 3 M ;X.Xf.6.W Q Q ! E L L O.E ].1XoX&.{ ] B Z k l B k 0 * N.2X].E 6.o.X.6.X.6.X.6.7.",
"~ ! ! ! ~ ~ X.! ~ a Q.2X9.4 B m B B k k m B 7 | 1XU.y E E Q Q Q Q Q ~ ! a n.2XT.O 0 9 7 8 0 0 0 8 k 4 #.1XN.u Q E T E Q E Q E E ",
"! ~ ~ ~ ~ ! ! Q X.K U.1X9.4 B k k m k k k k e | 1X^.H ! E Q ! Q Q Q Q ! f A.3X_.3 B k m k k k k N M 3 y.1Xx.L ! E Q ! ! ! ! E ! ",
"! E Q E E E E E X.g I.2X| 3 0 0 0 r 7 7 0 k 5 P ,X^.K X.! ~ W ! ! Q W W y A.3X_.3 B B N k B k k N N = $.1Xe.L X.Q ! ! ! ~ ~ ! E ",
"Q ! o.6.7.! o.X.6.W ^.1Xr.P P M F Z P U P B m $.:X].y J H E W ~ W ! X.6.6.].1X[.4 5 4 3 3 4 2 3 3 5 P y.1Xn.y G s a h J f s D ! ",
":X:X>X>X:X=X:X:X-X>X1X1X1X:X:X:X:X;X;X:X;X:X:X:X1X,X#X#X#X=X=X=X=X-X:X:X:X1X<X1X;X$X#X#X X X.X#X#X#X>X1X1X#X#X#X+X.X X X#X$X%X:X",
"A.A.A.OX1X#XA.I.A.I.A.A.A.U.Q.Q.}.2X2X@X~.(.~.D.D.G.!.!./.!.+X2X:X#X[.^.U.U.I.A.P.I.Q.oX>X1X<X&X&X&X|.`.W.|.`.W.K.L.;X2XoX}.}.T.",
"a D y y.3XU.w H f h K L K h g s g $X,Xd.>.2.2.1.2.<.<.1.2.:.Z.,Xx.i K K h g s H h g g w ].1XK.; V V 1 1 n : , , 1 + L.1X@.# 2 * ",
"Q  .D R.3X].D  .X.X.X.! ~ ~ ! 6.f .X1Xd.s.p.i.4.i.p.i.i.p.5.D.1Xn.L 6.! X. . .! !  . .J ].1XM.n ) ) ( ( _ ( ( ( _ n T.,X] 0 B B ",
"! o.D A.3XQ.D  .X.X.! ! Q ! Q 6.J  X>Xh.s.s.p.s.i.i.i.i.p.3.S.2Xn.L ~ ~ ~  .! Q !  .X.H ^.2XK.n _ _ ( ( ( ( _ ( / 1 W.;Xk k k k ",
"s D w n.3XQ.w K h g h K D f f D w .X:X2.2.2.1.2.1.<.<.1.2.:.V.1Xz.y E L L K L K K H K y .X2XK.@ V V V V C C C n C + K.:XB 3 5 2 ",
"U.U.n.[.1X=XQ.A.A.U.Q.A.x.A.U.A.Q.:X<X@X~.{.~.!.D./.U.!.!.G.+X2X[.7.e.0.0.n.x.n.m.U.D.R.:X<X.X;.;.=.=.;.*.-.-.;.v.L.#X1X&.@.$.] ",
"=X-X%X%X%X%X=X-X:X:X2X1X<X$X%X$X%X#X&X;X;X;X%X%X<X2X1X<X:X-X;X%X:X#X#X:X>X1X1X1X1X3X1X>X:X:X:X:X=X=X=X<X:X<X;X=X:X<X<X>X:X=X:X;X",
"L E Q E Q E E ! ~ W +X1XI.2 Z 5 4 4 0 m B z 2 P :X#Xc.7.o.Q R Q X.! ! 0.6..X1X#Xn.x.z.6.7.8.6.6.X.O.W E.2X.XO.O.O.O.0.7.7.O.7.0.",
"Q Q E Q ! Q Q Q R s ^.1X9.2 k k k k 8 k 0 0 8 Z :XQ.w E E R R E Q Q Q E y A.2X^.w J L E J E E E Q W H z.1XA.i Q E E T I J T T J ",
"Q ! Q Q Q E E Q Q f _.1X#.4 k k k k k k k k 8 P :XR.s  .Q Q R E Q Q E Q H U.2X].H X.! ! ! ! ! W ~ ~ J x.1Xn.L  .! ~ Q Q R Q R Q ",
"Q ! E I T R I I E y A.1X| 2 k 0 7 0 7 8 0 k 2 Y >XQ.d X.! ! Q Q Q Q Q ! y U.2X].f  .Q Q ! X.! ! Q ! h x.1Xx.E  .! ! ! Q R T Q Q ",
"E E X.X.! ! R Q 6.T I.>X#.9 k 0 B B P Z k k 9 @.>XQ.w h s h J E J L Q X.Q U.2X.Xh H u d h J L L H E W c.<Xx.w H s u s d s a h J ",
":X=X>X:X%X:X:X:X-X:X>X>X>X:X%X-X:X%X%X%X;X%X%X,X1X:X X X#X#X#X$X#X*X-X;X>X1X1X1X=X#X#X.X].[.#X#X+X#X<X1X2X=X.X#X[. X[..X}.#X#X=X",
"H.!./.$X1X%XI.Q.A.R.Q.A.A.Q.].^. X<X1X#X{.{././.{.!.{.@X(./.*X1X;X&XoX|.`.`.`.L.`.`.`.oX<X<X:X$X%X$X X}.}.|.}.].I._.:X2X=X.X#X.X",
",.2.:.S.3XR.w H f f f H f a f a p $X1XV.:.<.,.<.1.<.,.,.<.:.C.1Xv.n n 1 < 1 1 1 , , 1 ; |.1XT.* 0 4 3 3 3 q = = 3 . P.1Xf.y H h ",
"i.a.3.G.2X^.D X.! ~ R R ! ! !  .L +X:Xa.i.i.i.p.i.p.i.i.a.3.S.,Xl.n _ _ ( _ ( S ( / _ 1 Q.2Xy.= N m B N B B B N B 3 I.<Xf.Q  .! ",
"p.p.3.G.2X^.D  . .Q R Q Q  .!  .H  X-Xi.p.i.p.p.p.d.d.p.p.2.S.1Xl.n _ _ S / ( S / ) ) n Q.3Xy.3 B k k m k k k k z = R.1X7.E E ! ",
"<.3.:.G.3XR.w D H f s D H H h H y ].-X2.2.2.2.2.2.2.2.2.3.:.Z.1X;.1 ( C n V C C V 1 n @ Q.3Xy.$ 5 5 5 7 5 4 7 2 3 . u.,X! W E T ",
"!.!.Z.+X2X#Xc.n.n.A.A.n.m.n.A.I.A.=X,X/.S.G.F.G.C.G.H.F.H.F.OX2X|.} +.*.-.l.-.-.-.v.v.M.$X>X[.| @.] ] U ] | U #.w.r.+X1Xx.6.6.7.",
":X,X=X%X%X$X>X;X>X>X1X1X1X;X:X:X=X=X=X=X;X%X:X:X,X1X3X1X,X:X:X%X;X&X=X;X:X1X:X<X2X1X1X<X<X;X1X:X;X$X#X;X:X:X;X,X<X1X1X:X:X-X:X:X",
"M U M B B r U M ] P [.2XU.Q  .! E Q 6.E 6.E E 9.,X+Xr.$.Y Y U Z Z N { | U |.1X=XB.z.e.e.9.0.f.0.O.O.! `.1X.X0.e.0.0.0.z.f.f.f.x.",
"0 9 0 0 t M 9 0 0 $ P.3Xn.h Q E Q E G E E Q G 6.:Xu.O 9 9 9 9 0 8 8 3 r = b.1X.Xw G J J E E L W E Q d k.1XI.y L L L J J L E L K ",
"k k m M M k k k B 3 y.2Xz.L  .! Q Q R Q R Q G 9.<XA.2 B M M k k N t B B 4 r.2X}.D ! Q Q ! ! ! ! Q ! J k.1Xn.H  .! ! ! ! Q ! ~ ~ ",
"k N k t m 0 k m B * N.1X0.L ! Q Q E Q E Q Q G 6.<X_.2 P B M k l m N N B = r.2X.XD  .X. .~  .! !  .X.J e.1Xz.E X.Q !  .! ~ ! X.X.",
"4 4 4 M k 0 4 4 7 2 N.1Xe.D L L G E E Q E E H 6.1XT.. 3 * 3 3 4 q = 4 r q T.2X.Xy L g g D a a f g H p m.1Xz.w h u u s s s g g K ",
"%X#X#X=X#X%X%X%X&X=X>X1X:X:X=X=X=X$X#X=X=X=X%X-X1X:X`._._.#X#X[.oX[.#X$X;X1X1X,X%X#X.X[.].R.].[.[.#X=X:X1XoXQ.[.[.Q.R.].}..X X#X",
"+XOX(.@X1X;X).'.).Y.Y.Y.).).'.XX X,X1X%X#X+X+X_.^.^.[.[.[.E.#X2X1X>X*X*X@X+X+X+X+X+X*X=X1X1X<X-X=X=X#X#X#X$X#X.X].#X:X2X>X=X=X-X",
"1.2.:.G.1X).  v x j x x x j x v j #X,X9.y K f h a a p a s w z.1XS.5.3.1.2.2.2.1.,.<.<.,.OX1XI.K Q ! H J L L J a s w ^.1XC.>.2.5.",
"p.d.3.G.2X).c ' ` ` ` ' ` ` ` ` ^ XX,X6.E ! !  .R Q ! Q  .J n.1XS.<.a.i.p.p.p.p.i.i.i.<.(.1XA.H W Q Q Q Q Q ! !  .H E.1Xj.4.p.i.",
"s.p.3.!.2X).v ' ` ' ' ' ` ` ` ' v  X;X .Q ! R ! X.Q Q ! Q L m.1XV.3.i.4.4.p.p.4.i.i.a.3.(.1Xm.J W Q Q E Q Q Q Q  .h ].:X4.5.4.4.",
"5.5.:.H.2XY.j v v c v ^ v v v v %  X:XE D D D D D D D J L y r.2XZ.2.i.4.3.3.5.3.4.2.3.:.(.2XA.u Q Q E I J Q E E E w U.<Xa.3.i.4.",
"S.S.C.OX1X.Xt.q.q.u.u.t.t.t.t.t.u.#X<XA.e.r.x.x.n.x.n.x.x.x.^.,X!.4.p.a.j.j.Z.j.j.Z.C.S.%X1X.X6...Q Q ..! ! 6.9.e.c.oX<Xj.i.a.p."
};
