/* XPM */
static char *be3a0217049f41b1b15aa28d45084bb4kW5O4DyJu5qG2hg1[] = {
/* columns rows colors chars-per-pixel */
"38 38 221 2 ",
"   c None",
".  c #050B05",
"X  c #0C0B04",
"o  c #09050C",
"O  c #040A0B",
"+  c #0C0D0B",
"@  c #070509",
"#  c #130505",
"$  c #130B05",
"%  c #130C0B",
"&  c #1C0C0E",
"*  c #15070A",
"=  c #051407",
"-  c #05120B",
";  c #0B130D",
":  c #091B0D",
">  c #14120C",
",  c #18120E",
"<  c #040613",
"1  c #040E13",
"2  c #0C0C12",
"3  c #060E1C",
"4  c #0C0A1B",
"5  c #130D12",
"6  c #130C1B",
"7  c #190B19",
"8  c #031214",
"9  c #0B1313",
"0  c #0D1A12",
"q  c #03131B",
"w  c #09141B",
"e  c #0A1A1C",
"r  c #071A1D",
"t  c #151412",
"y  c #1A1514",
"u  c #111B13",
"i  c #191813",
"p  c #11141B",
"a  c #141C1B",
"s  c #1C1C1B",
"d  c #250E0D",
"f  c #29100E",
"g  c #231413",
"h  c #211E1B",
"j  c #28171D",
"k  c #2F1118",
"l  c #0A2413",
"z  c #0B241A",
"x  c #122116",
"c  c #15221B",
"v  c #1C241A",
"b  c #162E1B",
"n  c #1C2A1D",
"m  c #1D2016",
"M  c #15311D",
"N  c #22231E",
"B  c #24281C",
"V  c #30251E",
"C  c #0C0E25",
"Z  c #0B0E27",
"A  c #1D0625",
"S  c #130A22",
"D  c #1E0D2D",
"F  c #041521",
"G  c #0B1524",
"H  c #051A23",
"J  c #0B1A24",
"K  c #0D122B",
"L  c #131725",
"P  c #131A20",
"I  c #171528",
"U  c #191436",
"Y  c #171732",
"T  c #240E28",
"R  c #281526",
"E  c #271B39",
"W  c #2A183A",
"Q  c #341A37",
"!  c #0E242C",
"~  c #0E2625",
"^  c #142524",
"/  c #1B2523",
"(  c #1B2B23",
")  c #12242D",
"_  c #18292A",
"`  c #1B3523",
"'  c #1E342B",
"]  c #1A3825",
"[  c #232422",
"{  c #222C25",
"}  c #2A2C24",
"|  c #232E2B",
" . c #2B2D2A",
".. c #2A2021",
"X. c #3C2C25",
"o. c #322D28",
"O. c #223322",
"+. c #2C332B",
"@. c #233A29",
"#. c #31392C",
"$. c #37322B",
"%. c #272D34",
"&. c #392638",
"*. c #2C3D32",
"=. c #273A37",
"-. c #353731",
";. c #3B3534",
":. c #353D35",
">. c #3C3937",
",. c #373E39",
"<. c #43241E",
"1. c #42322D",
"2. c #452C34",
"3. c #433234",
"4. c #4A3534",
"5. c #573631",
"6. c #603934",
"7. c #28442C",
"8. c #2B4436",
"9. c #3C4B3E",
"0. c #344837",
"q. c #3C513F",
"w. c #404A36",
"e. c #52483E",
"r. c #66443E",
"t. c #2C1F46",
"y. c #351A41",
"u. c #113443",
"i. c #37274C",
"p. c #37354B",
"a. c #3C2D51",
"s. c #2C2949",
"d. c #422B43",
"f. c #432748",
"g. c #473745",
"h. c #442B52",
"j. c #423B5B",
"k. c #4C355B",
"l. c #533456",
"z. c #563E67",
"x. c #355447",
"c. c #324844",
"v. c #4A4846",
"b. c #46544C",
"n. c #52524B",
"m. c #56564C",
"M. c #48405D",
"N. c #5D4C52",
"B. c #545452",
"V. c #5D5056",
"C. c #5E5B59",
"Z. c #585656",
"A. c #514845",
"S. c #614849",
"D. c #714A43",
"F. c #66554E",
"G. c #76524D",
"H. c #60485E",
"J. c #6B5C55",
"K. c #6C595B",
"L. c #745A56",
"P. c #486754",
"I. c #59645C",
"U. c #6E6257",
"Y. c #63645C",
"T. c #6E635E",
"R. c #7D635B",
"E. c #5B5D62",
"W. c #5E4670",
"Q. c #735B6F",
"!. c #684E64",
"~. c #5C6469",
"^. c #636C66",
"/. c #656967",
"(. c #776B64",
"). c #7F6A64",
"_. c #736667",
"`. c #6B756D",
"'. c #677069",
"]. c #76756D",
"[. c #7A7A78",
"{. c #835E56",
"}. c #84655D",
"|. c #866E69",
" X c #836962",
".X c #8B796F",
"XX c #867973",
"oX c #927C78",
"OX c #97726D",
"+X c #81837B",
"@X c #9C877F",
"#X c #928378",
"$X c #A4867F",
"%X c #947F88",
"&X c #8E738A",
"*X c #8B8689",
"=X c #988B88",
"-X c #8E928B",
";X c #9F8A90",
":X c #919196",
">X c #9D9593",
",X c #A99992",
"<X c #A58882",
"1X c #AAA29A",
"2X c #BCAC9E",
"3X c #A39EA2",
"4X c #B29EA7",
"5X c #A8A5A6",
"6X c #BAAAA9",
"7X c #B8B5AD",
"8X c #BDB9BC",
"9X c #B6AFB8",
"0X c #CAABA5",
"qX c #C8B7AB",
"wX c #C4B8BA",
"eX c #CCC5BC",
"rX c #D2D2CF",
"tX c #CED2D3",
"yX c #D9D9DB",
"uX c #CECAC8",
"iX c #E8D6D7",
/* pixels */
"                                              M `                           ",
"                                          7.: : b                           ",
"                                        8.l - - ; ; ; -                     ",
"                                      9.c 9 e w c ^ 9 0                     ",
"                                    v 9 9 q F F G q O 9                     ",
"                                B ; 9 0 w w J G 3 < O c                     ",
"                              0 a e q J H q H K 3 < @ u                     ",
"                            ( z z r 8 r H q H L 6 o ; +.                    ",
"                            n 0 8 1 1 e e q e L 6 o + #.                    ",
"                            ( - ; O 2 p p 6 2 2 5 + m 9.                    ",
"                            O.+.n.,.h y 5 * @ * y t }                       ",
"                            B N /.].v.V g & # ..;.v B                       ",
"                            n . n.,X|.o.d f f 1.C.v.#.                      ",
"                            v X o.;X0XF.k <.5.1.C.-XY.                      ",
"                            v X $ J.0X<Xr.6.G.N.].5X`.9.                    ",
"                            :.#.m.F..X@XG.D.OXoX*X:X+Xm.                    ",
"                            I.`.qX,X|. X5.{.0XoXA.:X8XC.              @.`   ",
"                          I.'.+X,X6X,XR.<.}.0XL.g.5X8XE.          8.' ^ `   ",
"                          c.`.7X>X[.#X XS.L. X4.Z.9X3Xv.y     ,.| ' _ ~ z   ",
"                          | ~.tXrX1X_.(.qXoXX.g V.8X>X>.> y +.| ( =.        ",
"                  c.! r 9 9 /.yXyX7XK.].uX1X1.$ V.wX,X$.X X , [             ",
"                  ' 8 8 8 1 ~.tXyX*X;.A.7XeXU.& K.6X_.& * , i [             ",
"                ! q H ! J 1 E.uXyX*X;.;.=XwX_.2.%X4XV.* * y s               ",
"                ) q H ~ w o B.eXiX;X2.j g.Q.H.!.&X&Xd.7 6 2 a               ",
"                u.H F q 8 + e.6XiX4XS.T R R Q f.h.l.i.T S < <               ",
"                  ! 1 8 + X V J. XL.2.k Q &.i.l.l.i.h.W C C 3 )             ",
"                  =.e - O + X..XoXOX4.d k g.2.y.Q W k.a.C K G )             ",
"                    ( . X X e.2X0X=X4.* & R T A T Q z.k.U K G w _           ",
"                    0.u X $ F.qXqX#X1.# % 5 7 6 A h.W.i.U K K C             ",
"                    | + = X $.U.U.A.V $ + + + 6 D a.k.t.D K Z J             ",
"                *.{ u X , > $ # $ $ X B -.| 9 S D y.i.t.U K G G             ",
"          P.x.=.c ' B > N i $ $ $ % X -.'.C.=.S S D i.j.s.Z K q /           ",
"        x.7.] ' ' / a t t % X , y y t ,.`.    %.4 S W M.M.G 3 1 /           ",
"  c.7.] ] b ] ' c 9 - t , + % > y [ [ b.      =.o 6 I p.p.Y q O e           ",
"  b l ] M ] O.M - . - > v R s y y a | I.      / 9 5 2 L _ E a 9 - 0         ",
"P.] M n 7.0.q.q.( x x { v.n. . .[ t  .9.b.      u u ; 2 L %.| c 0           ",
"  7.M 0.            { 0.B.n.+.}  .N { O.          *.*.{ c / a ; u           ",
"                          n.  { $.  +.              q.*.a ; . -             "
};
