/* XPM */
static char *_44ac43782e14e40e543d1b9463038d4HMKqLXxc08PeDZot[] = {
/* columns rows colors chars-per-pixel */
"25 25 143 2 ",
"   c None",
".  c #0F1011",
"X  c #131416",
"o  c #141416",
"O  c #141719",
"+  c #16181B",
"@  c #1A1C1E",
"#  c #1E1E1E",
"$  c gray12",
"%  c #1A1E22",
"&  c #1E1F20",
"*  c #1F2020",
"=  c #1F2021",
"-  c #1D2022",
";  c #202020",
":  c #202122",
">  c #212223",
",  c #242425",
"<  c #252627",
"1  c #22262B",
"2  c #25272B",
"3  c #27292A",
"4  c #25282C",
"5  c #282829",
"6  c #292829",
"7  c #2D2E2F",
"8  c #2E2E2F",
"9  c #282E34",
"0  c #292E34",
"q  c #2F3031",
"w  c #2F3337",
"e  c #2E343B",
"r  c #313131",
"t  c #303132",
"y  c #303233",
"u  c #323232",
"i  c gray20",
"p  c #303234",
"a  c #343434",
"s  c #353535",
"d  c gray21",
"f  c #393939",
"g  c #383A3B",
"h  c #3A3A3A",
"j  c #3C3C3C",
"k  c #3F3E3E",
"l  c #3F3F3E",
"z  c #403F3F",
"x  c #333941",
"c  c #3C3F42",
"v  c #3A424B",
"b  c #3C444C",
"n  c #3F4850",
"m  c #404041",
"M  c #414141",
"N  c #434140",
"B  c #434344",
"V  c #4E4E4E",
"C  c #4F4E4E",
"Z  c #454E59",
"A  c #4F5050",
"S  c #47515C",
"D  c #505050",
"F  c gray32",
"G  c #525253",
"H  c #535353",
"J  c #555150",
"K  c gray33",
"L  c gray34",
"P  c gray35",
"I  c #5A5A5A",
"U  c #5B5B5B",
"Y  c #5B5D5E",
"T  c gray36",
"R  c gray37",
"E  c #5F5F5F",
"W  c #606060",
"Q  c gray38",
"!  c #626262",
"~  c gray39",
"^  c #646363",
"/  c #646464",
"(  c #656565",
")  c #656666",
"_  c gray40",
"`  c #666767",
"'  c #676767",
"]  c #676768",
"[  c #686868",
"{  c DimGray",
"}  c #6A6A6A",
"|  c gray42",
" . c #6C6C6C",
".. c #6D6D6D",
"X. c gray43",
"o. c #6F6E6E",
"O. c #6F6F6F",
"+. c gray44",
"@. c #717171",
"#. c #707172",
"$. c #717172",
"%. c #717273",
"&. c #727272",
"*. c #727273",
"=. c gray45",
"-. c #747474",
";. c gray46",
":. c #767676",
">. c gray47",
",. c #787879",
"<. c #797979",
"1. c #7C7C7B",
"2. c #7B7C7C",
"3. c #7C7C7C",
"4. c gray49",
"5. c #7D7D7E",
"6. c #7D7E7E",
"7. c #7E7E7E",
"8. c #7E7E7F",
"9. c gray50",
"0. c #808080",
"q. c gray51",
"w. c #838383",
"e. c #848483",
"r. c #838484",
"t. c gray52",
"y. c gray53",
"u. c #8D8D8D",
"i. c #979797",
"p. c #9D9D9D",
"a. c #9F9E9E",
"s. c #9F9F9F",
"d. c gray63",
"f. c #A2A2A1",
"g. c gray64",
"h. c #A4A4A4",
"j. c #A5A5A5",
"k. c gray65",
"l. c #A7A7A7",
"z. c #AAAAAA",
"x. c gray67",
"c. c #B7B7B7",
"v. c gray",
/* pixels */
"                                                  ",
"                    G                             ",
"                    p.r.                          ",
"                  - -.z.3.                        ",
"                  @ R 3.d.<.                      ",
"                  o W } -.d.*.                    ",
"                  o W | ! -.d.`                   ",
"                  3 ` } ` ! >.G                   ",
"                  y [ } / ! / f                   ",
"                  !  ./ ! W ! ` m                 ",
"          2. .A I ../ H d f I `  .C k z k m +.!   ",
"        *.c.u.=.*.! G < O O y I ` *.-.-.-.i.v.    ",
"      *.h.>.! ! ! U 5 % x v 1 s W ! ! ^ t.d.<.    ",
"    *.l.0.} } } } R # 9 Z S e j ..} } t.d.`       ",
"0 Y p.3.|  . .| ....I e B b c *.*.! 9.s.J         ",
"  < y ; ; - $ $ 7 ! 3.` e f +.*.C ; 6 N           ",
"                  7 ! 3.t.e.-.D ;                 ",
"                  X K -.-.-.o.a                   ",
"                    i.u.*.=.o.i                   ",
"                    3.x.q.=.+.y                   ",
"                    1 [ k.q.o.y                   ",
"                      3 ..j.9.y                   ",
"                          9.d.B                   ",
"                            3.I                   ",
"                              #                   "
};
