/* XPM */
static char *a0557875e6b941bda30614096c37be0fTyhsgQOnRpuqMDZa[] = {
/* columns rows colors chars-per-pixel */
"64 64 127 2 ",
"   c #635D5D",
".  c #655E60",
"X  c #676163",
"o  c #6A6366",
"O  c #6D6669",
"+  c #6E686A",
"@  c #706768",
"#  c #726B6D",
"$  c #756E71",
"%  c #786F72",
"&  c #777173",
"*  c #7A7375",
"=  c #7D7679",
"-  c #7E787A",
";  c #80777A",
":  c #827B7D",
">  c #857E81",
",  c #887F82",
"<  c #878183",
"1  c #8A8385",
"2  c #8D8689",
"3  c #8E888A",
"4  c #90878B",
"5  c #928B8D",
"6  c #958E91",
"7  c #988F93",
"8  c #9A8E98",
"9  c #969092",
"0  c #999395",
"q  c #9D9699",
"w  c #9E989A",
"e  c #A1969E",
"r  c #A29C9E",
"t  c #A497A2",
"y  c #A59DA1",
"u  c #A99EA5",
"i  c #A6A1A3",
"p  c #A9A0A5",
"a  c #AAA1A4",
"s  c #A8A2A4",
"d  c #A9A3A5",
"f  c #ABA2A5",
"g  c #ABA2A7",
"h  c #ACA3A4",
"j  c #ACA3A6",
"k  c #AAA4A6",
"l  c #ABA5A7",
"z  c #AFA7A5",
"x  c #ADA4A7",
"c  c #ACA6A6",
"v  c #AAA3A5",
"b  c #AFAAA7",
"n  c #ABA0A8",
"m  c #ABA1A9",
"M  c #ADA4A9",
"N  c #AEA5A8",
"B  c #ACA6A8",
"V  c #ADA7A9",
"C  c #AFA6A9",
"Z  c #AEA5AA",
"A  c #AFA6AB",
"S  c #ADA6A9",
"D  c #AEA8AA",
"F  c #AFA9AB",
"G  c #AFA9AA",
"H  c #B0A7A8",
"J  c #B0A7AA",
"K  c #B0A7AC",
"L  c #B0A7AA",
"P  c #B1A8A9",
"I  c #B1A8AB",
"U  c #B2A9AA",
"Y  c #B0AAAA",
"T  c #B1ABAB",
"R  c #B3AAAB",
"E  c #B4ACAA",
"W  c #B1A8AD",
"Q  c #B2A9AC",
"!  c #B0AAAC",
"~  c #B1ABAD",
"^  c #B3AAAD",
"/  c #B4ABAC",
"(  c #B4ABAE",
")  c #B2ACAC",
"_  c #B3ADAD",
"`  c #B2ACAE",
"'  c #B3ADAF",
"]  c #B5ACAD",
"[  c #B5ACAF",
"{  c #B6ADAE",
"}  c #B4AEAE",
"|  c #B2ABAD",
" . c #B6ADB0",
".. c #B4AEB0",
"X. c #B5AFB1",
"o. c #B7AEB1",
"O. c #B5AEB0",
"+. c #B8AFB2",
"@. c #B8AFB2",
"#. c #B6B0B2",
"$. c #B7B1B3",
"%. c #B6B1B2",
"&. c #BAB1B2",
"*. c #B9B4B1",
"=. c #BAB1B4",
"-. c #B8B2B4",
";. c #B9B3B5",
":. c #BBB2B5",
">. c #B9B3B7",
",. c #BCB3B6",
"<. c #BAB4B4",
"1. c #BAB4B6",
"2. c #BBB5B7",
"3. c #B9B3B5",
"4. c #BEB9B6",
"5. c #BCB6B8",
"6. c #BDB7B9",
"7. c #BCB6B8",
"8. c #BEB8B8",
"9. c #BEB8BA",
"0. c #BFB9BB",
"q. c #BFB9BD",
"w. c #BEB9BA",
"e. c #C0BABC",
"r. c #C1BBBD",
"t. c #C2BCBE",
"y. c #C1BABC",
/* pixels */
"q 9 5 6 9 6 5 9 - i >.#.#.>.%.#.:.B ..b *.3 3 h i r h h s r r s s ` w * s F V V s B ^ ^ ^ @.r , e 6 0 0 9 9 3 9 0 5 0 9 3 9 V s ",
"q 9 0 q 0 9 0 0 = r q.q.5.5.2.>.q.&.8.1.4.1 , z i i h H s k F F D #.9 + } #.F V B V B B L ^ r : r 5 0 0 9 0 0 9 9 9 w w 9 - s s ",
"< 1 5 3 2 3 3 1 X < w i i y r i e q 6 0 1 # o * : e e e r r q 0 < < & O 3 i k k ..k ` `  . .8 * 9 0 0 6 w 5 9 w 9 w w 0 : o 0 V ",
"- - : < : & X + < 1 1 2 3 3 3 2 4 1 # @ ; 9 r i e 2 * # # + O * = 1 9 r 9 2 2 - & = > - > : % # & 1 4 4 3 3 3 2 < < - - * $ & * ",
"0 0 9 w w 9 = < u p Z K m t r y u m 2 : / / / / E E H , @ 5 r k s s i V i s V i w 9 # # 9 w D B r 9 # # = - : 3 3 5 w 9 r w 0 9 ",
"2 5 9 0 9 w 2 1 u 8 8 q t y y e e u 5 4 &.Z Z L P P e.7 = j p r i s w s i k i i V V 1 3 w.>.2.%.#.,.9 . 0 s r B s i s s k k k V ",
"3 3 9 q 9 9 : 1 u e e t t t t q 8 t 6 5 E H E L E L ^ 6 : y r s k i w s s F i r s s 6 6 4.%.~ %.` X.Y # r s s r s s i k r r r V ",
"3 0 0 q 9 9 = 2 y t t u t 8 t e t u 7 6 @.Z j u H H I 7 : u i i s i i r i V s s B B 9 0 t.X.' %.X.X.` * q B r B V i k k i r r i ",
"9 9 6 9 5 5 : 2 u t t t u e u e e u 7 6 m p a z F s V 9 : s r k V w i i s V k s i k 0 r 2.4.%.%.' ' s & w k s s i i i r k s i r ",
"0 9 9 9 6 0 : 5 u e t t t e t q w t 7 1 L Y E E V V %.q 1 ` r r s i i q r r r r r V 5 w 2.' ' ' ! ' ~ & 9 ~ s k V i k k s i s i ",
"0 q 9 0 0 q = 1 u t u u u u u u y w 3 & B H E ] F ..#.3 - s i w k k w i V i k s G ' 2 w r.>.2.' 6.6.~ & < i r s s k V V s i r r ",
"< < - - - - + @ , , 4 2 4 , 4 2 > = * & ; 4 4 6 5 3 : # & - - 9 9 r k w i w r 9 9 1 + - r G ~ G V ! 0 - & - < 1 3 5 < : < - $ & ",
"# # 1 5 8 e r r 0 0 0 0 4 O % > 3 5 9 9 9 5 : 1 + # 1 w ` D q 9 < & * * & * - * : > < < & o + & < r r G ' ' %.' G i s 0 + # < 2 ",
"1 2 :.@. ./ E h { /  .:...; 4 t w 9 5 q 0 0 9 q 1 9 5.#.#.2.1.1.#.< = 3 5 9 9 0 0 6 9 r 0 6 2 # i 6.%.%.' %.%.' %.` 1.-.3 5 9 6 ",
"6 5 :.L Z j j u H H x p L 2 7 6 9 9 9 9 w 6 9 0 3 3 w.>.` ..` V 2.9 2 w 9 0 5 5 9 6 6 9 5 9 0 > w ' ' ~ ` 1.%.' ~ V ' -.2 5 w w ",
"4 0 / / L L / K / j Y Y ^ 1 2 q 9 9 9 q 5 6 0 9 2 5 #...1.#.#.` >.w < 0 6 6 5 5 9 9 9 9 6 9 9 < r 1.-.~ -.6.' ' ~ ' -.' 5 5 9 9 ",
"7 e { r E u { ^ Y / j j L 2 4 6 6 4 q 3 0 w 0 9 3 9 #.#.#.` s D 2.w < 0 w 0 6 9 6 9 9 9 3 9 6 : 9 9.` ! #.1.#.` D #.$.#.< 3 0 9 ",
"4 e { u H @.@.^ L L L /  .2 4 0 4 4 9 9 9 w w 9 9 3 #.1.#.1.#.#.9.w + w 9 9 9 9 5 5 0 w 3 9 q - w w.-.%.1.1.1.%.` 1.8.1.- 3 q q ",
"# 4 o./ H  .^ / j x B B y ; , e e 0 0 i 0 0 9 0 3 * e  .#.1.D D k < X < 6 2 3 9 3 6 9 5 3 < > $ : 9 0 r q y p p i w 0 < O = 2 1 ",
"@ @ % ; ; ; ; ; ; , 1 1 4 : 4 4 1 , : : > < = - & & * ; * & - * + + : & - > < : - : & # $ + & - 1 6 9 9 9 3 6 5 < o O = 1 3 3 3 ",
"6 3 9 3 : . 6 y V ` ..F #.#.#.` s w 3 o 1 s s s L L I u r 7 % # & 9 w 9 9 w w 9 w 5 < : $ - r } ~ ~ / @.:./  ./ #.2 2 s V V V #.",
"9 9 q 9 6 : ^ :.$.1.1.#...` #.1.1.2.%.- i *.F b H E I H { @.7 % 0 0 3 0 9 9 0 9 9 q w w - 5 F V V k B L  .L L j #.5 9 i w w w i ",
"9 9 9 q 6 < ..:.#. .#.1.#.` ` ` F ` %.1 k V B ` L u H h H @.7 : 0 w 9 6 0 w 6 9 9 w 9 9 - 0 #.F F D ` Y  .L L L #.2 9 k s q w B ",
"q 9 9 q 9 6 .. .` ` ..#.` #.#.>.5.>...1 s V ` ` L { n n H o.7 * 0 9 6 6 9 9 9 9 w 9 6 w : r #.#.F F ` D  .Z j ^ } < 9 V q i w i ",
"w 9 9 q 6 9 $.^ $...#...8.#.1.1.2.%.2.2 i ~ B k V s D Y j  .5 % 6 6 9 9 0 9 9 9 5 3 9 q 1 w ..V / ^ / L ^ D D V V 3 9 V i i s r ",
"9 q 9 9 3 3 ....F #.$.$.,.#...k F 1.F 2 V B i k F ` x x L / 7 ; 0 6 9 6 9 0 6 9 9 5 9 9 < w >.k B L L L D ^ F F } < w i i i B s ",
"5 9 w i 1 , ,.6.$.#.$.$.&.D H H %.5...2 ..#.} i K E Y ^ / @.0 o 6 9 w w 0 0 9 9 9 q 9 5 # 3 V V K / @.@. . .} F ..> 6 B i w r B ",
"3 9 2 < $ . 5 ^ ..>.t.5.:.6.,.e.%.%.w + 0 r i i u u r q 0 6 ; * & : & - 2 3 3 3 1 : * * O X & * : > , 1 4 2 2 2 = + = q q w 0 w ",
"$ O + = 4 , : : < 2 6 6 0 r 8 7 < : = * = * $ $ # # : 5 0 B D D l w 2 < # o O # 5 w i D w 9 - o , 1 3 5 5 3 2 < < 1 - X X - - & ",
"$ < p  ./ / :. .^ y e q 7 6 % . < s w s i i 5 O 4 ` #.1.$.1.1.#.5.4.5.%.D 6 # r 1.1.1.#.1.8.D & y u k B V V V V s V i $ < q q 9 ",
"1 p &.L / Y /  ./ / @. .{ @.4 % B s w s s s k : &.8.` $...` #.` %.` ....5.d & %.1.` ` >...$.k : r i i i i r i r i s s - 6 w 9 9 ",
", p  ./ K u K / ^ L  .^ H ^ 4 : B i w s s s r 1 ` #.B ` $.>.` ` %.` ..%.5.D - l #.1.1.F D #.k < k p i i i i i s s V i : 6 6 9 9 ",
"2 u {  .H ( ^ / I j @.L p :.5 : s s s r h h r , q. ... .>.>...>.5.l ~ ~ >.D < l &.`  .`  .$.F 1 i s r i s b i k s k i : 5 5 6 0 ",
", j H u ^ { H h I L u r Y #.3 : i s c i c z r 2  . . .:.=.@...X.` D %.>.5.b - l ,.&.#.1.>.1.F 3 V i i s B B r k r V V : 6 0 w 6 ",
"; H { I H ^ H I L j ^  .^ &.< 1 w r i d i c u 1 ....` ....W ~ ~ ..! %.5.q.%.- ` &.Y / o.>.1.i : ! k l r e r r r r s i - 2 9 9 9 ",
"@ 1 e r u u / / L H H j y 6 o 1 ..B i c h c r ; k  .1.q.:.^ #.>.5.5.>.>.>.0 + l e.e.y.y.1.` 9 # r i V i D ` k p i B s : 5 w w r ",
"7 4 ; % # % : : : 1 1 : < > > & 3 9 6 9 4 2 , @ $ : 2 0 e e B V D w w 3 - - & & 2 7 6 7 4 ; ; ; : = : < 2 3 4 1 < < < + & : : : ",
"/ @.@.I e : , e r y r s F i i i 0 9 + @ ; , 4 7 5 5 , , > > - # # & < 2 w w w 0 : o 1 r j B L L l w 5 1 O - 0 6 0 0 i r s w 9 9 ",
"^ ^ L /  .0 q [ D i p k w i r i s B 2 0 H u t u y t u y y m t q - 0 D D l i k D u ; ^ @.L / L ^ k V ` [ 1 r t.@.-.6.-.' -.%.2.-.",
"@.@.^ / @.6 0 ^ s i i D V s i i r r < 0 y 8 e t e t y e t y y t < r i r i l r i e 1 L L K j ^ L } V i ` 3 r e.E ` ' ' %.6.' %.' ",
"@./ @./ K 5 e h k i i i k r r i s s 1 9 w 8 e t i t t m q t m t : d k i i i l i w 9 ! V B / [ / L #.F V 6 i 5.5.%.%.~ ' 6.' ! V ",
" .j / H / 4 6 / i i k i r r r i l d : w i q q t w i t i i t m 8 < d k d i i i i 9 3 ~ B L D B j L k F #.3 i %...' -.' %.~ -.' ' ",
"K / j / e.: , u B B V F F B k k b r - 9 t t e t r B i i m m m 8 & i D i i i l ..0 5 $.B ^ ^ D ^ L p V ' 3 k 5.X.-.%.` -.' ' 2.6.",
"u L t 5 % . o # - - < 1 < : > < - = # # = > > 3 9 w w 0 6 5 : O + 2 3 6 0 w w 0 ; < D V ^ ^ ^ #.&.&.-.~ * 2 ~ ~ ' ~ ' %.-.' ~ ! ",
"1 & & < 4 e r r w 9 2 < = + O X O O * # * - = : & + & + + - 3 i l i w w 9 < & O O O & : 3 9 9 2 4 4 4 1 < : < 2 3 2 3 - - < : < ",
"r o i 1.e.e.&.y.q.>.#.#.....9 $ 9 9 9 0 0 q 6 0 9 9 9 + 9 >.%.>.%.q.5.1.%.4.w O 9 9 0 i r i w q 4 $ r #.%.%.*.X.%.' ` ! 6 X > ! ",
"0 < 1.[ 1.>.Y x F F ..} ..2.V < 9 9 9 9 3 9 5 9 5 9 0 - i 4.~ G ~ ..~ ~ D %.i < s s i s s V V F ` 3 #.,.~ %.%.%.! ' %.2.%.# 5 ' ",
"q 3 6.1.1.$.^ &.#...#.....$.s - 9 q y 6 9 q 9 6 5 9 5 - r w.*.' X.1.%.....5.i 3 k i k r i s s D s 5 ` X.k >.>.%.%.! %.%.%.* 2 %.",
"q 9 5.F #.} #.#.2.2...V V 2.V - 9 9 9 9 0 0 9 w 9 0 9 - d >.%.%.%.%...` %.*.w 3 l r i r k i i i r 1 D ..%.#...1.%.%.F ` #.< 2 F ",
"5 5 >.>.2.#.#.2.} 2.$.#.#.w.6 > 9 3 0 w 9 0 9 9 3 5 w < d 5.%.' %.` ....~ 5.i 3 ~ i i i i i r r k 1 #.1...>.%.F #.%.` %.5.2 2 %.",
"# + < 3 0 w i i V ..#.i w 2 o & 3 5 w 0 0 w 9 0 5 3 9 - 0 >.5.>.>.*...%.5.q.0 < D i ` l l l i ` k : D %...1.5.%.%...#.0.>.< < %.",
"2 < 2 < - : - * * & & - > 2 5 9 9 3 1 < & : < 1 < 3 3 & + & < 3 r l i i i 0 : & < 3 0 0 r 0 9 9 < O 1 9 w s D V B B s q 3 # - 3 ",
"9 0 0 0 9 0 0 0 9 : : 6.-.2.-.#.w.! & # 1 9 9 w r r i r w 9 3 - & & 9 w r w r i i w 9 - X O 5 w q w r r w r q < X # * - 2 9 0 3 ",
"9 5 3 9 0 0 0 0 w 2 2 -.~ ' $.-.>.*.< 5 c c b i V i d V V V V V 9 - %.>.6.>.>.X.>.*...%.< 9 6.6.%.0.2.2.#.%.0.w $ 3 0 q w 0 9 0 ",
"9 9 0 w w 5 9 9 9 2 5 ..~ ..' 6.*.6.- 6 c r i i i i d d i i r d 0 3 >.D ....~ ........q.3 l q.~ #.%.#.%.V D 5.i - 0 9 5 0 0 9 9 ",
"9 0 q 5 9 9 9 9 0 6 6 6.' -.~ -.4.*.: 0 c r d i w d r i i i V V 3 0 5.X.%.%.5.%.~ %.%...< r %.D F 1.1.2.F #.5.i < 9 9 0 w 0 6 9 ",
"9 9 9 9 9 0 9 5 9 5 2 %.' ' ` %.*.X.& w b i r d w i k k k i i D 9 w q.X.*.%...X.%...~ ..< r %.*.%.>.2.%.' %.w.0 = 6 q 9 9 9 0 9 ",
"9 0 0 5 9 9 q 9 6 < 2 %.%.' %.%.' k X w b i d i B i w d B i r B 3 w 5...>.%...D %.~ %.1.- 0 5.5.` %.>.%.~ ' 9.w < 0 5 0 9 q 0 q ",
"w 0 0 5 0 9 e 0 6 - > ' 9.>.1.2.' 3   - 9 w i w i i d k D D k k : w q.%.w.*.` %.1.X.%.i & : r l ~ 1.>.4.2.2.9.1 $ 2 3 9 9 r 9 q ",
"3 w 0 5 1 1 : * # $ + $ < 3 > < - & < < 1 < < < 3 : < 3 5 1 < + X # 3 6 9 0 0 5 3 3 2 2 < < - & * : 1 < 2 2 - & - - = - > 5 5 1 ",
"& % & : 6 4 e e 0 r u r r 1 o 3 w i d i d D i w r 0 5 :   - 0 w w w 0 1 + . * < 3 3 9 0 w 9 w 9 3 > - + . : r B ' G V 0 = o < < ",
"0 1 % r @.@.{ @.:.L x x ' s < k r s i w i i s i i V D i - D w.%.%.%.` w.3 & r 0 0 9 w 0 9 6 9 6 6 9 0 - 1 6.` 1.%.%.-.9.0 & l d ",
"r 7 % r H K ^ / E L j L x y < h w r V r s i i i i r d i 3 ` ` D k %...w.0 * 0 9 3 5 6 5 6 6 9 9 9 w 9 < 5 6.~ ` ! ~ G 1.0 & l i ",
"6 4 @ H ^ K ^ ^ / / p &.Y r < k i s k s r i r i i i ! w 9 %.>...%.*.>.>.0 < 0 9 6 6 6 6 9 6 6 6 6 9 0 < 6 w.' ` ' %.*.1.9 < ! d "
};
