/* XPM */
static char *_9516b9b263d4496e6a7622332475bd1E2hhzZtWxdYgimUK[] = {
/* columns rows colors chars-per-pixel */
"64 64 242 2 ",
"   c #000000",
".  c #0C0000",
"X  c #000008",
"o  c #000112",
"O  c #00001E",
"+  c #101111",
"@  c #271600",
"#  c #10211A",
"$  c #292B18",
"%  c #00042B",
"&  c #061B28",
"*  c #111D23",
"=  c #00063B",
"-  c #011838",
";  c #192528",
":  c #082335",
">  c #132C36",
",  c #182934",
"<  c #232C29",
"1  c #2D3129",
"2  c #3E3629",
"3  c #253338",
"4  c #473300",
"5  c #63490F",
"6  c #4F472D",
"7  c #685833",
"8  c #7A6530",
"9  c #001748",
"0  c #000054",
"q  c #082945",
"w  c #112A45",
"e  c #04324C",
"r  c #183447",
"t  c #002354",
"y  c #193956",
"u  c #283A48",
"i  c #283B53",
"p  c #003B66",
"a  c #003F75",
"s  c #1D4151",
"d  c #2C414D",
"f  c #374344",
"g  c #29475A",
"h  c #354959",
"j  c #385359",
"k  c #194569",
"l  c #1B5477",
"z  c #284A69",
"x  c #374962",
"c  c #2C546B",
"v  c #395668",
"b  c #285476",
"n  c #375878",
"m  c #3D6179",
"M  c #4E4E4B",
"N  c #47535A",
"B  c #555A5C",
"V  c #766B4F",
"C  c #465965",
"Z  c #535B63",
"A  c #415F74",
"S  c #5B656A",
"D  c #49667A",
"F  c #576876",
"G  c #5A737B",
"H  c #696969",
"J  c #676B74",
"K  c #6C7477",
"L  c #79787A",
"P  c #8F4D00",
"I  c #886A03",
"U  c #967000",
"Y  c #977927",
"T  c #9C7E2C",
"R  c #887130",
"E  c #977C33",
"W  c #877E77",
"Q  c #AA8300",
"!  c #B98F00",
"~  c #A9871C",
"^  c #9D802D",
"/  c #9F8132",
"(  c #A6862C",
")  c #B7952D",
"_  c #AA8B36",
"`  c #B18F30",
"'  c #B79636",
"]  c #BC9A32",
"[  c #D0A70D",
"{  c #C19E35",
"}  c #C9A42D",
"|  c #C5A235",
" . c #CAA636",
".. c #D4AE39",
"X. c #D8B238",
"o. c #9B8759",
"O. c #BF9E43",
"+. c #B19658",
"@. c #978D71",
"#. c #AD9970",
"$. c #C9A74B",
"%. c #0C5585",
"&. c #285886",
"*. c #345C86",
"=. c #376389",
"-. c #2A6995",
";. c #3B6A9B",
":. c #1B73AB",
">. c #3772A9",
",. c #525F8C",
"<. c #466987",
"1. c #516D86",
"2. c #557587",
"3. c #456B97",
"4. c #4B7296",
"5. c #457498",
"6. c #667689",
"7. c #727B87",
"8. c #637892",
"9. c #4A7BA5",
"0. c #567DA3",
"q. c #7A8589",
"w. c #6F8B90",
"e. c #768797",
"r. c #4F87B0",
"t. c #668CA7",
"y. c #6D93AE",
"u. c #639BB6",
"i. c #74ABBE",
"p. c #79A8BA",
"a. c #3A91C4",
"s. c #2F8AFE",
"d. c #328FFE",
"f. c #3491FE",
"g. c #3896FE",
"h. c #3C9CFE",
"j. c #3EA3FC",
"k. c #4C91C9",
"l. c #5396C4",
"z. c #5EA6D3",
"x. c #67A5C3",
"c. c #78AAC8",
"v. c #6FAED2",
"b. c #76B5D8",
"n. c #509EEB",
"m. c #57ABE6",
"M. c #58AEED",
"N. c #43A5FE",
"B. c #46A9FE",
"V. c #4AACFE",
"C. c #4EB6FD",
"Z. c #54B4FE",
"A. c #56B9F9",
"S. c #5DBCFE",
"D. c #67BBEB",
"F. c #77BFE8",
"G. c #69B9F5",
"H. c #61BFFD",
"J. c #5DC2FF",
"K. c #74C5EB",
"L. c #7DD2E8",
"P. c #61C0FE",
"I. c #68C4F9",
"U. c #6AC5FD",
"Y. c #6CCAFE",
"T. c #77CAF9",
"R. c #73CDFE",
"E. c #6DD1FE",
"W. c #7DD1F5",
"Q. c #75D2FE",
"!. c #7CD4FE",
"~. c #7CD5FE",
"^. c #7ED9FF",
"/. c #878787",
"(. c #928C86",
"). c #96968C",
"_. c #8B9398",
"`. c #979A98",
"'. c #A5A198",
"]. c #889CA9",
"[. c #989EA1",
"{. c #8AA6AC",
"}. c #99A3A5",
"|. c #8CAAB8",
" X c #92AEB4",
".X c #9BACB2",
"XX c #8CB3BE",
"oX c #9AB5BC",
"OX c #A3A5A4",
"+X c #A7A9A6",
"@X c #A5AFB0",
"#X c #A6B5B7",
"$X c #B3BCBD",
"%X c #CAC8B7",
"&X c #90B3C5",
"*X c #A6BBC4",
"=X c #B4BBC1",
"-X c #9AC9DD",
";X c #B7C4C6",
":X c #ABCBD8",
">X c #B8D4DD",
",X c #8CCAE7",
"<X c #89D6ED",
"1X c #96D8EB",
"2X c #81D6FE",
"3X c #8BD5FA",
"4X c #83DBFE",
"5X c #8BDCFE",
"6X c #94D8F9",
"7X c #ABD5EA",
"8X c #A5DAE8",
"9X c #8CE2FE",
"0X c #94E5FD",
"qX c #98E6FA",
"wX c #96EBFE",
"eX c #9CECFE",
"rX c #9EF1FF",
"tX c #BAE2EA",
"yX c #A6E5FA",
"uX c #A2ECFD",
"iX c #AEECFC",
"pX c #B8E7F3",
"aX c #B2EEFC",
"sX c #BBEEFB",
"dX c #A2F3FF",
"fX c #ACF3FF",
"gX c #A7FDFF",
"hX c #B3F2FE",
"jX c #BCF1FD",
"kX c #B8FAFF",
"lX c #D3D4CA",
"zX c #CBD8D9",
"xX c #D3E6DB",
"cX c #C7E4EC",
"vX c #D7E7E8",
"bX c #C8EAF3",
"nX c #C3EEF9",
"mX c #C4F1FC",
"MX c #CBF5FE",
"NX c #C3F9FF",
"BX c #CCFAFF",
"VX c #D3F8FD",
/* pixels */
"f.f.f.f.f.f.f.f.f.f.f.f.f.f.f.f.f.f.f.f.f.f.f.f.f.f.f.f.f.f.f.f.f.f.f.f.f.f.f.f.f.h.h.B.B.B.B.B.B.B.B.B.B.B.B.B.B.B.B.B.B.B.B.B.",
"f.f.f.f.f.f.f.f.f.f.f.f.f.f.f.f.f.f.f.f.f.f.f.f.f.f.f.f.f.f.f.f.f.f.f.f.f.f.f.d.g.B.B.B.B.B.B.B.B.B.B.B.B.B.B.B.B.B.B.B.B.B.B.B.",
"f.f.f.f.f.f.f.f.f.f.f.f.f.f.f.f.f.f.f.f.f.f.f.f.f.f.f.f.f.f.f.f.f.f.f.d.f.f.f.h.f.B.B.B.B.B.B.B.B.B.B.B.B.B.B.B.B.B.B.B.B.B.B.B.",
"f.f.f.f.f.f.f.f.f.d.f.f.f.f.f.f.f.f.f.f.f.f.f.f.f.f.f.f.f.f.f.f.f.f.f.f.f.f.f.h.N.B.h.B.B.B.B.B.B.B.B.B.B.B.B.B.B.B.B.B.B.B.B.B.",
"f.f.f.f.f.f.f.f.f.f.f.f.f.f.f.f.f.f.f.f.f.f.f.f.d.f.f.f.f.f.f.f.f.f.f.f.f.f.d.f.B.h.g.B.B.B.B.B.B.B.B.B.B.B.B.B.B.B.B.B.B.B.B.B.",
"f.f.f.f.f.f.f.f.f.f.f.f.f.f.f.f.f.f.f.f.f.f.f.f.f.f.f.f.f.f.f.f.f.f.f.f.f.f.f.g.B.B.N.B.B.B.B.B.B.B.B.B.B.B.B.B.B.B.B.B.B.B.B.B.",
"f.f.f.f.f.f.f.f.f.f.f.f.f.f.f.f.d.f.f.f.f.f.f.f.f.f.f.f.f.f.f.f.g.f.f.f.f.d.N.B.B.B.B.B.B.B.B.B.B.B.B.B.B.B.B.B.B.B.B.B.B.B.B.B.",
"f.f.f.f.f.f.f.f.f.f.f.f.f.f.f.f.f.f.f.f.f.f.f.f.f.f.f.f.f.f.f.f.f.f.f.f.d.f.g.h.B.B.B.B.B.B.B.B.B.B.B.B.B.B.B.B.B.B.B.B.B.B.B.B.",
"f.f.f.f.f.f.f.f.d.f.f.f.f.f.f.f.f.f.f.f.f.f.f.f.f.f.f.f.f.f.f.f.f.f.f.f.f.N.f.d.B.B.B.B.B.B.B.B.B.B.B.B.B.B.B.B.B.B.B.B.B.B.B.B.",
"f.f.f.f.f.f.f.f.f.f.f.f.f.f.f.f.f.f.f.f.f.f.f.f.f.f.f.f.f.f.f.f.f.f.f.f.d.g.f.g.B.B.B.B.B.B.B.B.B.B.B.B.B.B.B.B.B.B.B.B.B.B.B.B.",
"f.f.f.f.f.f.f.f.f.f.f.f.f.f.f.f.f.f.f.f.f.f.f.f.f.f.f.f.f.f.f.f.f.f.f.d.f.f.d.N.B.N.N.B.B.B.B.B.B.B.B.B.B.B.B.B.B.B.B.B.B.B.B.B.",
"f.f.f.f.f.f.f.f.f.f.f.f.f.f.f.f.f.f.f.f.f.f.f.f.f.f.f.f.f.f.f.d.f.f.f.f.N.B.g.h.N.N.B.B.B.B.B.B.B.B.B.B.B.B.B.B.B.B.B.B.B.B.B.B.",
"f.f.f.d.f.f.f.f.f.f.f.f.f.f.f.f.f.d.f.f.f.f.f.f.f.f.f.f.f.f.f.g.f.f.h.B.N.B.B.N.B.B.B.B.B.B.B.B.B.B.B.B.B.B.B.B.B.B.B.B.B.B.N.B.",
"f.f.f.f.f.f.f.f.d.f.f.f.f.f.f.f.f.f.f.f.f.f.f.f.d.f.f.f.f.d.d.d.f.h.V.B.h.N.B.B.B.B.B.B.B.B.B.B.B.B.B.B.B.B.B.B.B.B.B.B.N.B.B.Z.",
"f.f.f.f.f.f.f.f.f.f.f.f.f.f.f.f.f.f.f.f.f.f.f.f.f.f.f.g.d.d.d.g.h.B.B.B.B.B.B.B.B.B.B.B.B.B.B.B.B.B.B.B.B.B.B.B.B.B.B.B.Z.S.S.H.",
"f.f.f.f.f.f.f.f.f.f.f.f.f.f.f.f.f.f.f.f.f.f.f.f.f.d.d.d.g.h.N.B.V.B.B.B.B.B.B.B.B.B.B.B.B.B.B.B.B.B.B.B.B.B.B.B.B.B.B.B.S.Z.S.P.",
"f.f.f.f.f.f.f.f.f.f.f.f.f.f.f.f.f.f.f.f.f.f.f.f.d.d.g.h.g.B.B.B.B.N.N.B.B.B.B.B.B.B.B.B.B.B.B.B.B.B.B.B.B.B.B.B.B.B.N.Z.S.S.S.P.",
"f.f.f.f.f.f.f.f.f.f.f.f.f.f.f.f.f.f.f.f.f.f.f.f.d.d.g.B.B.V.B.h.B.N.B.B.B.B.B.B.B.B.B.B.B.B.B.B.B.B.B.B.B.B.B.N.B.B.Z.S.S.P.H.S.",
"f.f.f.f.f.f.f.f.f.f.f.f.f.f.f.f.f.f.f.f.f.f.f.f.g.d.g.B.B.g.h.N.B.B.B.B.B.B.B.B.B.B.B.B.B.B.B.B.B.B.B.B.B.B.B.Z.Z.j.Z.P.S.P.H.H.",
"f.f.f.f.f.f.f.f.f.f.f.f.f.d.f.f.f.f.f.d.f.f.d.d.d.g.g.B.N.s.h.B.B.B.B.B.B.B.B.B.B.B.B.B.B.B.B.B.B.B.B.B.B.B.B.H.H.Z.Z.P.H.P.P.P.",
"f.f.f.f.f.f.f.f.f.f.f.f.f.f.f.f.f.f.f.h.g.d.h.h.g.N.N.B.B.N.B.B.B.B.B.B.B.B.B.B.B.B.B.B.B.B.B.B.B.B.B.B.B.Z.S.H.P.P.P.P.P.P.P.P.",
"f.f.f.f.d.f.f.d.d.g.f.f.f.f.f.f.f.f.d.h.N.g.B.B.B.B.B.B.B.B.B.B.B.B.B.B.B.B.B.B.B.B.B.B.B.B.B.B.B.B.B.B.S.P.J.S.P.P.P.P.P.P.H.P.",
"g.d.d.f.f.f.f.f.h.g.d.f.f.d.d.g.f.g.B.h.g.g.g.B.B.B.B.B.B.B.B.B.B.B.B.B.B.B.B.B.B.B.B.B.B.B.B.B.B.B.S.S.H.H.P.M.S.P.P.P.P.P.P.P.",
"j.f.g.j.N.N.h.N.B.h.f.d.h.f.g.B.g.g.B.h.d.d.g.B.B.B.B.B.B.B.B.B.B.B.B.B.B.B.B.B.B.B.B.B.B.B.B.V.Z.Z.P.P.P.H.U.x.D.P.S.P.P.H.P.P.",
"B.N.B.B.B.B.h.h.h.g.d.g.B.N.d.h.N.g.B.B.h.N.B.B.B.B.B.B.B.B.B.B.B.B.B.B.B.B.B.B.B.B.B.B.B.B.B.Z.P.P.H.H.P.P.J.k.D.P.H.P.P.P.P.H.",
"B.B.B.B.B.B.N.N.B.B.h.B.B.B.h.B.B.B.B.B.B.B.B.B.B.B.B.B.B.B.B.B.B.B.B.B.B.B.B.B.B.B.B.B.B.Z.S.P.P.H.P.P.P.H.J.z.I.J.P.P.P.P.P.P.",
"B.B.B.B.B.B.B.B.B.B.B.B.B.B.B.B.B.B.B.B.B.B.B.B.B.B.B.B.B.B.B.B.B.B.B.B.B.B.B.B.B.B.B.B.B.Z.P.H.H.P.P.H.H.H.P.M.D.P.P.P.H.P.P.P.",
"B.B.B.B.B.B.B.B.B.B.B.B.B.B.B.B.B.B.B.B.B.B.B.B.B.B.B.B.B.B.B.B.B.B.B.B.B.B.B.B.B.B.B.B.V.H.H.H.P.P.P.P.P.H.J.D.m.P.P.P.P.P.P.H.",
"B.B.B.B.B.B.B.B.B.B.B.B.B.B.B.B.B.B.B.B.B.B.B.B.B.B.B.B.B.B.B.B.B.B.B.B.B.B.B.B.V.V.Z.Z.Z.S.P.P.P.P.P.P.P.H.P.m.m.P.H.P.P.H.P.P.",
"B.B.B.B.B.B.B.B.B.B.B.B.B.B.B.B.B.B.B.B.B.B.B.B.B.B.B.B.B.B.B.B.B.B.B.B.B.B.B.B.B.V.S.H.S.S.P.P.H.P.P.H.P.S.U.m.l.P.H.P.P.P.P.P.",
"B.B.B.B.B.B.B.B.B.B.B.B.B.B.B.B.B.B.B.B.B.B.B.B.B.B.B.B.B.B.B.B.B.V.B.B.B.B.B.N.B.Z.Z.S.H.S.P.P.P.P.P.P.P.H.U.m.a.P.P.P.P.H.H.P.",
"B.B.B.B.B.B.B.B.B.B.B.B.B.B.B.B.B.B.B.B.B.B.B.B.B.B.B.B.B.B.B.B.B.N.B.V.B.B.V.Z.Z.S.P.P.P.P.P.P.S.P.H.P.P.J.P.m.v.U.S.P.P.P.P.P.",
"B.B.B.B.B.B.B.B.B.B.B.B.B.B.B.B.B.B.B.B.B.B.B.B.B.B.B.B.B.B.B.B.B.Z.H.H.Z.S.S.Z.S.Z.P.P.P.P.P.P.P.P.P.P.P.S.I.k.t.I.P.P.P.H.P.P.",
"B.B.B.B.B.B.B.B.B.B.B.B.B.B.B.B.B.N.B.B.V.B.N.V.Z.B.N.B.N.V.Z.V.Z.H.P.P.H.H.H.S.H.H.H.P.P.H.P.P.P.P.P.P.P.P.P.N.>X6XC.U.P.P.P.S.",
"B.B.B.B.B.B.B.N.N.B.N.B.B.B.V.V.Z.S.Z.S.P.S.S.S.P.Z.Z.Z.C.S.S.S.H.H.H.H.P.P.H.P.P.H.H.P.P.P.P.S.P.H.J.H.P.P.P.M.*X7XZ.H.H.H.S.Y.",
"Z.S.S.S.Z.Z.S.Z.S.S.S.S.Z.S.H.P.H.H.P.P.P.P.P.P.P.H.P.P.P.H.P.P.H.H.H.P.H.P.H.P.P.P.P.P.P.H.P.P.P.P.P.H.P.P.J.5.&.t.H.H.H.Y.Q.!.",
"P.P.P.P.P.P.P.P.P.P.P.P.P.P.P.P.H.P.P.P.H.P.P.P.P.H.P.P.H.P.P.H.J.P.P.P.P.P.H.P.P.P.P.H.P.P.P.P.P.P.P.P.S.P.S.>.4.c.Y.S.P.Y.!.!.",
"P.P.P.P.P.H.P.P.P.P.P.P.P.P.P.P.P.H.H.P.P.P.P.H.P.P.P.P.P.P.P.P.H.P.H.P.P.P.P.P.P.P.J.H.H.P.H.P.P.H.P.P.P.H.J.a.v F.U.P.U.!.!.!.",
"P.P.P.P.H.P.P.P.P.P.P.P.H.P.P.H.P.P.P.P.H.P.P.H.P.P.H.P.P.P.P.P.H.P.H.P.P.H.P.H.P.P.P.P.P.P.P.P.P.P.P.H.P.P.U.r.u :.U.!.R.!.!.!.",
"P.P.P.P.H.J.P.H.P.P.P.P.P.P.P.P.P.P.S.P.H.J.P.P.P.H.P.P.P.P.P.P.P.P.P.P.P.P.P.P.P.P.P.S.P.P.P.P.P.H.P.P.P.S.U.D.z &XR.!.!.!.!.!.",
"H.P.P.P.P.P.H.P.P.P.P.P.H.P.S.H.P.P.P.P.P.P.H.P.P.H.P.P.H.P.P.P.H.P.H.P.H.P.P.H.P.P.H.P.P.P.P.P.P.H.P.P.S.J.U.K.b =X6XQ.2X!.!.!.",
"P.P.P.P.P.P.P.P.P.P.H.H.H.H.U.H.P.P.P.P.P.P.P.P.P.P.P.P.P.P.P.P.P.P.P.P.H.H.P.P.H.H.H.H.P.S.S.P.H.H.P.P.U.U.m.5.9.>.z.G.2X!.!.!.",
"H.H.P.P.P.P.P.H.I.P.J.A.J.J.C.S.H.H.S.H.H.H.P.P.P.P.J.S.H.P.P.P.P.P.H.S.P.S.S.S.H.U.H.P.U.U.U.U.P.U.P.Q.!.E.u.r *.<.;.M.4X!.!.!.",
"P.P.H.S.S.S.S.U.P.G.6X3XF.G.Q.T.J.U.R.P.U.P.H.P.H.J.P.U.J.A.A.A.A.S.P.Y.U.Y.Y.Y.Q.!.Q.!.!.!.!.!.Q.!.Q.!.!.Y.E.v   i h T.^.!.!.!.",
"Q.!.R.Y.R.Y.U.R.n.c.&X|.y.z.>X&X,XY.Q.!.!.U.S.P.P.U.P.A.T.6XY.2X!.Y.R.Q.Y.Q.!.!.2X!.2X!.!.!.!.!.!.!.!.!.!.^.^.z.u ;.a.4X!.!.!.!.",
"^.!.!.!.!.!.I.n.;.u.=.y 3.3.8.,.p.uX3XY.!.!.Q.R.E.D.t.4.8.|.x.XXx.c.*Xv.3X5XQ.!.!.!.!.!.!.!.!.!.!.!.!.!.!.^.^.K.b c.yX!.!.!.!.!.",
"!.!.!.!.2XR.k.*.x k x C z p k 0 p.yX6XQ.!.^.!.!.W.&X*Xq.    *   K @X$XOX#X3XQ.!.!.!.!.!.!.!.!.!.!.!.^.!.!.Q.^.K.%.`.cXE.!.!.!.^.",
"!.!.!.!.2XT.*.1 0 I +.#.R R (.7 2.,X1XW.!.!.!.!.!.w.p.2.y r , O w.#X@X_./.].W.!.!.!.!.!.!.!.!.4X!.!.!.!.!.Q.^.I.k e.bX!.!.!.!.!.",
"!.!.!.!.^.L.c @ 9 E } Y ) ` E +.' o.b.Q.^.^.!.!.W.c 1.Z X , , # H 7._._.J |.5X!.!.!.!.!.!.!.!.!.!.!.!.!.!.!.^.K.t.c.zXiX!.2X!.5X",
"!.!.!.!.Q.K.b , z 7 ' | ( T ) E _ ! ).E.^.Q.!.^.L.D .X2.  ; 1 3 n 6.+X;X[.|.3XQ.!.!.!.!.!.!.!.!.!.!.!.!.Q.W.^.K.t.D.:XhX9XeXwXeX",
"!.!.!.!.9XK.d z ;.#.~ E { ( ` ) ' ! q.E.^.Q.W.4XI.<..XB 1 6 3 d 1.@X#X#X7..X0X!.2X9X9X9X!.!.!.5X5X5X!.!.4X5X5X<Xk c.cX1XeXuXeXeX",
"eXeX0X0XwX<Xj b 9.o.[ ' Y ] ] / ^ U i.^.!.9X4X9XF.h L N # d z w w.*X[./.L |.uXeX0X0XeXeX0XwXeXeXeXeXeXeXrXeXrX<X9 e.zX<XdXeXeXeX",
"eXeXrXeX<Xi.C b 4.o.( { { T (  .) ! XXrXqXrXeXrXz.i 6.c   u u o S }.[._./.}.yXrXeXeXeXeXrXeXeXeXeXeXeXeXuXeXrX1Xk <.=XtXwXeXeXeX",
"eXeXeXdXi.  v *.n { X.( E  .` E ( Q XXrXqXeXqXdXb.x  XG   , .   M )..X#X_.$XfXrXeXeXeXuXeXeXeXeXeXeXeXeXuXuXdX<X<.-XvXVXfXfXwXrX",
"eXeXeXeXu.w v 5.4.I } X.] T ] { ) I p.rXeXrXqXdX-XF XXG   , ; < v 8.}.;X_._.uXrXeXeXeXeXeXeXeXeXeXeXuXeXrXeXdX1X8.(.lXxXzXzXpXmX",
"uXeXdXqX5.> j -.e.O.( ( { ' T _ } Q XXgXuX8XuXdX-X2.{.B . $ , v k =.OX;Xq.'.aXeXeXeXeXrXuXeXeXeXeXeXrXeX0XeXdX1XW /.).lX@X'.%X%X",
"eXeXrX<Xj r m -.H { $.T 8 { X.|  .[ %XxX@.XXuXrXF.C /.B & C N c n w.@X#XL =XfXwXeXeXuXeXwXeXwXeXeXwXuX0X2XqXdXL._.pX>XvXhX,X>XtX",
"eXrXfXiXm r 5.-.8 I ' ..} X.X. .( ^ Q P w.0XuXgXc.g W B 3 F N 3 Z _.@X'.(..XuXrXeXeXeXuXhXiXaXaXiXiXfXqX5XeXdX1X[.-X0.vXMXkXNXNX",
"eXwXuX-Xv c r.l @.$.( / ] { ` 6 &   M i.wXrXqXkXp.C /.Z 6 6 r u S `.OX_.(.[.yXwXeXeX8XaXjXjXjXjXjXjXhXaXjXnXNX8X/./.r.vXVXsXmXbX",
"hXhXyXD - 5.5.l V $. .5 $ 6 @   4 R 8XgXrXaXaXNX&Xt 2.S r d u > G #X+X}./.@XjXhXsXhXyXjXmXjXjXjXjXjXnXnXMXMXmX7XD OXy.zXVXMXBXBX",
"MXBXbXC % D z N 6 . R 7 o   L Z 5 o.1XhXpXMXsXBXoX7.e.N & < 3 : B .X.X).L oXmXMXmXnXyXMXnXmXMXMXMXMXMXBXmXBXnX-XJ $X8.vXnXpXbXvX",
"mXMXbXS % v s d 2 O % & + . f 3 . <   q.mXMXaXBXoXJ 7.h 3 x u y H '.OX).W {.MXBXMXBXnXbXVXNXsXtXpX7X>XvXvXtX&Xx.OX`.).`.<.D D S ",
"mXMXpXD e v j r X , : *         X ;   S nXBXaXNX|.p <.i 3 < $ h n 8.+X}.H `.7XcX8X|.e.K }.u.r.<.4.=.n F ,.n e z =X#X).= i o o O ",
"mXNX;Xk m d g g y ; , , , & #   +      XBXmXsXMX|.y 7.h g u h v *.*.e.e.=.<.n n k 9 - e % - w q w r q q e r * , S q.M   * + * ; "
};
